<svg width="23" height="46" viewBox="0 0 23 46" fill="none" xmlns="http://www.w3.org/2000/svg">
<path d="M1.91008 20.0878L2.86766 20.052L1.91008 20.0878ZM22.1694 38.3931C22.5384 37.9871 22.5299 37.3288 22.1502 36.9228L15.9635 30.3065C15.5838 29.9005 14.9768 29.9005 14.6078 30.3065C14.2387 30.7125 14.2473 31.3708 14.6269 31.7768L20.1263 37.658L14.7802 43.5392C14.4111 43.9452 14.4197 44.6034 14.7993 45.0095C15.179 45.4155 15.786 45.4155 16.155 45.0095L22.1694 38.3931ZM21.4827 1.1832C21.4691 0.143548 21.4687 0.143548 21.4681 0.143549C21.4678 0.14355 21.4672 0.14355 21.4666 0.143551C21.4654 0.143553 21.464 0.143557 21.4622 0.143563C21.4586 0.143577 21.4538 0.143601 21.4478 0.143645C21.4358 0.143733 21.419 0.143902 21.3974 0.144224C21.3542 0.144869 21.2923 0.146128 21.2127 0.148586C21.0537 0.153499 20.8244 0.163211 20.535 0.182407C19.9564 0.220779 19.1361 0.297165 18.1563 0.4494C16.2021 0.753048 13.5871 1.36246 10.9855 2.59229C8.38397 3.82206 5.75649 5.69114 3.83492 8.53664C1.90257 11.3981 0.731094 15.1787 0.952508 20.1236L2.86766 20.052C2.66584 15.5446 3.72932 12.236 5.38747 9.78052C7.05641 7.3091 9.37498 5.63357 11.7724 4.50027C14.1698 3.36702 16.6066 2.7949 18.4545 2.50778C19.3758 2.36463 20.1441 2.29332 20.6789 2.25785C20.9462 2.24012 21.1547 2.23137 21.2944 2.22705C21.3642 2.2249 21.4168 2.22385 21.4509 2.22334C21.4679 2.22308 21.4803 2.22296 21.4879 2.22291C21.4917 2.22288 21.4943 2.22287 21.4957 2.22286C21.4964 2.22286 21.4968 2.22286 21.4969 2.22286C21.4969 2.22286 21.4968 2.22286 21.4968 2.22286C21.4965 2.22286 21.4962 2.22286 21.4827 1.1832ZM0.952508 20.1236C1.30308 27.9531 4.78414 32.6592 9.05362 35.3573C13.2619 38.0166 18.1793 38.6976 21.4955 38.6976L21.4684 36.6183C18.3348 36.6183 13.7999 35.9649 10.0015 33.5645C6.26426 31.2028 3.18431 27.1238 2.86766 20.052L0.952508 20.1236Z" fill="white"/>
</svg>
