<svg width="38" height="39" viewBox="0 0 38 39" fill="none" xmlns="http://www.w3.org/2000/svg">
<circle cx="19" cy="19.0029" r="19" fill="white"/>
<path d="M11.7276 16.0362C11.9553 16.1952 12.6417 16.6676 13.7868 17.4531C14.9319 18.2386 15.8091 18.8434 16.4185 19.2676C16.4854 19.3141 16.6277 19.4152 16.8453 19.5709C17.0629 19.7268 17.2437 19.8528 17.3876 19.9489C17.5316 20.045 17.7057 20.1527 17.91 20.272C18.1143 20.3912 18.3068 20.4808 18.4876 20.5402C18.6685 20.6 18.8359 20.6296 18.9899 20.6296H19H19.0101C19.1641 20.6296 19.3316 20.6 19.5124 20.5402C19.6931 20.4808 19.8858 20.3911 20.0899 20.272C20.2941 20.1526 20.4682 20.0449 20.6122 19.9489C20.7562 19.8528 20.9369 19.7268 21.1546 19.5709C21.3722 19.415 21.5146 19.3141 21.5815 19.2676C22.1975 18.8434 23.7646 17.7662 26.2824 16.0359C26.7712 15.698 27.1796 15.2903 27.5076 14.8129C27.8359 14.3358 27.9999 13.8353 27.9999 13.3117C27.9999 12.8741 27.8408 12.4996 27.5227 12.188C27.2046 11.8764 26.8279 11.7207 26.3928 11.7207H11.6071C11.0915 11.7207 10.6947 11.893 10.4168 12.2377C10.1389 12.5824 10 13.0133 10 13.5303C10 13.9479 10.1842 14.4005 10.5525 14.8877C10.9207 15.3749 11.3125 15.7578 11.7276 16.0362Z" fill="url(#paint0_linear)"/>
<path d="M26.9953 17.0994C24.7992 18.5709 23.1315 19.7145 21.9933 20.53C21.6116 20.8083 21.302 21.0255 21.0642 21.1812C20.8264 21.337 20.5101 21.4961 20.115 21.6584C19.72 21.821 19.3518 21.902 19.0102 21.902H19H18.9899C18.6484 21.902 18.28 21.821 17.885 21.6584C17.49 21.4961 17.1735 21.337 16.9358 21.1812C16.6982 21.0255 16.3884 20.8083 16.0068 20.53C15.1027 19.8738 13.4387 18.7301 11.0146 17.0994C10.6328 16.8477 10.2946 16.5591 10 16.2344V24.1293C10 24.567 10.1573 24.9414 10.4721 25.253C10.7868 25.5647 11.1652 25.7204 11.6072 25.7204H26.3929C26.8348 25.7204 27.2132 25.5647 27.5279 25.253C27.8427 24.9413 28 24.5671 28 24.1293V16.2344C27.712 16.5524 27.3772 16.841 26.9953 17.0994Z" fill="url(#paint1_linear)"/>
<defs>
<linearGradient id="paint0_linear" x1="19" y1="11.7207" x2="19" y2="20.6296" gradientUnits="userSpaceOnUse">
<stop stop-color="#56A0F3"/>
<stop offset="1" stop-color="#487EE8"/>
</linearGradient>
<linearGradient id="paint1_linear" x1="19" y1="16.2344" x2="19" y2="25.7204" gradientUnits="userSpaceOnUse">
<stop stop-color="#56A0F3"/>
<stop offset="1" stop-color="#487EE8"/>
</linearGradient>
</defs>
</svg>
