<svg width="71" height="71" viewBox="0 0 71 71" fill="none" xmlns="http://www.w3.org/2000/svg">
<circle cx="35.5332" cy="35.0029" r="35" fill="white"/>
<path d="M21.7157 30.5374C22.1351 30.8304 23.3995 31.7006 25.5088 33.1476C27.6182 34.5946 29.2341 35.7087 30.3567 36.4901C30.48 36.5757 30.742 36.7619 31.1429 37.0489C31.5438 37.336 31.8769 37.5681 32.142 37.7451C32.4072 37.922 32.7279 38.1205 33.1043 38.3403C33.4806 38.5598 33.8353 38.7249 34.1683 38.8343C34.5015 38.9445 34.8098 38.9991 35.0935 38.9991H35.1121H35.1308C35.4144 38.9991 35.7229 38.9444 36.056 38.8343C36.3889 38.7249 36.744 38.5596 37.1199 38.3403C37.4961 38.1203 37.8167 37.922 38.082 37.7451C38.3473 37.5681 38.6801 37.336 39.0812 37.0489C39.4819 36.7616 39.7443 36.5757 39.8676 36.4901C41.0023 35.7087 43.8891 33.7243 48.527 30.537C49.4275 29.9145 50.1798 29.1634 50.7841 28.2841C51.3889 27.4052 51.691 26.4833 51.691 25.5187C51.691 24.7126 51.3978 24.0226 50.8118 23.4487C50.2259 22.8747 49.5319 22.5879 48.7304 22.5879H21.4936C20.5438 22.5879 19.8129 22.9053 19.301 23.5402C18.7891 24.1752 18.5332 24.969 18.5332 25.9214C18.5332 26.6907 18.8725 27.5243 19.5509 28.4218C20.2292 29.3193 20.951 30.0246 21.7157 30.5374Z" fill="url(#paint0_linear)"/>
<path d="M49.8404 32.4959C45.7948 35.2065 42.7229 37.3131 40.6261 38.8153C39.923 39.328 39.3526 39.7282 38.9146 40.0149C38.4766 40.3019 37.894 40.595 37.1661 40.894C36.4384 41.1935 35.7602 41.3428 35.131 41.3428H35.1121H35.0935C34.4645 41.3428 33.7859 41.1935 33.0582 40.894C32.3306 40.595 31.7476 40.3019 31.3097 40.0149C30.8719 39.7282 30.3013 39.328 29.5983 38.8153C27.9329 37.6065 24.8676 35.4997 20.4022 32.4959C19.6989 32.0321 19.076 31.5006 18.5332 30.9023V45.4456C18.5332 46.252 18.823 46.9416 19.4028 47.5156C19.9825 48.0897 20.6796 48.3767 21.4938 48.3767H48.7306C49.5446 48.3767 50.2416 48.0897 50.8214 47.5156C51.4014 46.9414 51.691 46.2521 51.691 45.4456V30.9023C51.1605 31.4882 50.5439 32.0198 49.8404 32.4959Z" fill="url(#paint1_linear)"/>
<defs>
<linearGradient id="paint0_linear" x1="35.1121" y1="22.5879" x2="35.1121" y2="38.9991" gradientUnits="userSpaceOnUse">
<stop stop-color="#56A0F3"/>
<stop offset="1" stop-color="#487EE8"/>
</linearGradient>
<linearGradient id="paint1_linear" x1="35.1121" y1="30.9023" x2="35.1121" y2="48.3767" gradientUnits="userSpaceOnUse">
<stop stop-color="#56A0F3"/>
<stop offset="1" stop-color="#487EE8"/>
</linearGradient>
</defs>
</svg>
