<svg width="59" height="59" viewBox="0 0 59 59" fill="none" xmlns="http://www.w3.org/2000/svg">
<circle cx="29.1768" cy="29.0029" r="29" fill="white"/>
<path d="M17.7268 25.3035C18.0743 25.5463 19.1219 26.2673 20.8696 27.4663C22.6174 28.6652 23.9563 29.5883 24.8864 30.2357C24.9886 30.3067 25.2057 30.461 25.5379 30.6987C25.87 30.9367 26.1461 31.129 26.3657 31.2756C26.5855 31.4222 26.8512 31.5867 27.1631 31.7688C27.4748 31.9507 27.7687 32.0875 28.0447 32.1781C28.3207 32.2694 28.5762 32.3146 28.8112 32.3146H28.8266H28.8421C29.0771 32.3146 29.3327 32.2694 29.6088 32.1781C29.8846 32.0875 30.1788 31.9505 30.4903 31.7688C30.8019 31.5865 31.0676 31.4222 31.2874 31.2756C31.5072 31.129 31.783 30.9367 32.1153 30.6987C32.4474 30.4608 32.6647 30.3067 32.7669 30.2357C33.7071 29.5883 36.099 27.9441 39.9419 25.3032C40.6879 24.7874 41.3113 24.1651 41.812 23.4365C42.3131 22.7083 42.5634 21.9444 42.5634 21.1452C42.5634 20.4773 42.3205 19.9056 41.835 19.4301C41.3495 18.9545 40.7745 18.7168 40.1104 18.7168H17.5427C16.7558 18.7168 16.1502 18.9798 15.726 19.5059C15.3019 20.032 15.0898 20.6897 15.0898 21.4788C15.0898 22.1162 15.371 22.807 15.9331 23.5506C16.4951 24.2943 17.0932 24.8786 17.7268 25.3035Z" fill="url(#paint0_linear)"/>
<path d="M41.0301 26.9258C37.678 29.1718 35.1327 30.9173 33.3954 32.1619C32.8128 32.5867 32.3402 32.9183 31.9773 33.1559C31.6143 33.3937 31.1316 33.6365 30.5285 33.8843C29.9256 34.1324 29.3637 34.2561 28.8423 34.2561H28.8267H28.8113C28.29 34.2561 27.7278 34.1324 27.1249 33.8843C26.5219 33.6365 26.0389 33.3937 25.6761 33.1559C25.3133 32.9183 24.8406 32.5867 24.2581 32.1619C22.8782 31.1603 20.3383 29.4147 16.6385 26.9258C16.0557 26.5416 15.5396 26.1012 15.0898 25.6055V37.6556C15.0898 38.3238 15.3299 38.8952 15.8104 39.3707C16.2907 39.8464 16.8683 40.0842 17.5429 40.0842H40.1106C40.785 40.0842 41.3626 39.8464 41.8429 39.3707C42.3235 38.895 42.5635 38.3238 42.5635 37.6556V25.6055C42.1239 26.0909 41.613 26.5313 41.0301 26.9258Z" fill="url(#paint1_linear)"/>
<defs>
<linearGradient id="paint0_linear" x1="28.8266" y1="18.7168" x2="28.8266" y2="32.3146" gradientUnits="userSpaceOnUse">
<stop stop-color="#56A0F3"/>
<stop offset="1" stop-color="#487EE8"/>
</linearGradient>
<linearGradient id="paint1_linear" x1="28.8267" y1="25.6055" x2="28.8267" y2="40.0842" gradientUnits="userSpaceOnUse">
<stop stop-color="#56A0F3"/>
<stop offset="1" stop-color="#487EE8"/>
</linearGradient>
</defs>
</svg>
