<svg width="38" height="38" viewBox="0 0 38 38" fill="none" xmlns="http://www.w3.org/2000/svg">
<g filter="url(#filter0_d)">
<circle cx="19" cy="17" r="15" fill="white"/>
<path d="M13.3437 15.3908C13.5208 15.5158 14.0547 15.8869 14.9453 16.5041C15.8359 17.1213 16.5182 17.5965 16.9922 17.9298C17.0442 17.9664 17.1549 18.0458 17.3241 18.1682C17.4934 18.2907 17.634 18.3896 17.7459 18.4651C17.8579 18.5406 17.9933 18.6253 18.1523 18.719C18.3111 18.8126 18.4609 18.8831 18.6015 18.9297C18.7422 18.9767 18.8724 19 18.9921 19H19H19.0079C19.1277 19 19.2579 18.9767 19.3986 18.9297C19.5391 18.8831 19.689 18.8126 19.8478 18.719C20.0066 18.6252 20.142 18.5406 20.254 18.4651C20.366 18.3896 20.5065 18.2907 20.6758 18.1682C20.8451 18.0457 20.9558 17.9664 21.0079 17.9298C21.487 17.5965 22.7058 16.7501 24.6641 15.3906C25.0443 15.1251 25.3619 14.8047 25.6171 14.4297C25.8725 14.0548 26 13.6615 26 13.2501C26 12.9063 25.8762 12.612 25.6288 12.3672C25.3814 12.1223 25.0884 12 24.75 12H13.2499C12.8489 12 12.5403 12.1354 12.3242 12.4062C12.1081 12.6771 12 13.0156 12 13.4219C12 13.75 12.1433 14.1056 12.4297 14.4884C12.7161 14.8712 13.0209 15.172 13.3437 15.3908Z" fill="url(#paint0_linear)"/>
<path d="M25.2186 16.2266C23.5105 17.3828 22.2134 18.2813 21.3281 18.9221C21.0313 19.1407 20.7904 19.3114 20.6055 19.4338C20.4205 19.5562 20.1746 19.6812 19.8672 19.8087C19.56 19.9365 19.2737 20.0001 19.008 20.0001H19H18.9922C18.7265 20.0001 18.44 19.9365 18.1328 19.8087C17.8256 19.6812 17.5794 19.5562 17.3945 19.4338C17.2097 19.3114 16.9688 19.1407 16.6719 18.9221C15.9688 18.4064 14.6745 17.5078 12.7891 16.2266C12.4922 16.0288 12.2292 15.8021 12 15.5469V21.7501C12 22.0941 12.1223 22.3883 12.3672 22.6331C12.6119 22.8779 12.9063 23.0004 13.25 23.0004H24.7501C25.0937 23.0004 25.388 22.8779 25.6328 22.6331C25.8777 22.3882 26 22.0941 26 21.7501V15.5469C25.776 15.7968 25.5157 16.0235 25.2186 16.2266Z" fill="url(#paint1_linear)"/>
</g>
<defs>
<filter id="filter0_d" x="0" y="0" width="38" height="38" filterUnits="userSpaceOnUse" color-interpolation-filters="sRGB">
<feFlood flood-opacity="0" result="BackgroundImageFix"/>
<feColorMatrix in="SourceAlpha" type="matrix" values="0 0 0 0 0 0 0 0 0 0 0 0 0 0 0 0 0 0 127 0"/>
<feOffset dy="2"/>
<feGaussianBlur stdDeviation="2"/>
<feColorMatrix type="matrix" values="0 0 0 0 0 0 0 0 0 0 0 0 0 0 0 0 0 0 0.25 0"/>
<feBlend mode="normal" in2="BackgroundImageFix" result="effect1_dropShadow"/>
<feBlend mode="normal" in="SourceGraphic" in2="effect1_dropShadow" result="shape"/>
</filter>
<linearGradient id="paint0_linear" x1="19" y1="12" x2="19" y2="19" gradientUnits="userSpaceOnUse">
<stop stop-color="#56A0F3"/>
<stop offset="1" stop-color="#487EE8"/>
</linearGradient>
<linearGradient id="paint1_linear" x1="19" y1="15.5469" x2="19" y2="23.0004" gradientUnits="userSpaceOnUse">
<stop stop-color="#56A0F3"/>
<stop offset="1" stop-color="#487EE8"/>
</linearGradient>
</defs>
</svg>
