<svg width="51" height="51" viewBox="0 0 51 51" fill="none" xmlns="http://www.w3.org/2000/svg">
<circle cx="25.1768" cy="25.0029" r="25" fill="white"/>
<path d="M15.3064 21.814C15.606 22.0233 16.5091 22.6448 18.0158 23.6784C19.5225 24.7119 20.6767 25.5078 21.4786 26.0659C21.5666 26.127 21.7538 26.26 22.0401 26.465C22.3265 26.6701 22.5644 26.8359 22.7538 26.9623C22.9432 27.0887 23.1723 27.2305 23.4411 27.3874C23.7099 27.5443 23.9633 27.6622 24.2012 27.7403C24.4391 27.819 24.6594 27.858 24.862 27.858H24.8753H24.8886C25.0912 27.858 25.3116 27.819 25.5495 27.7403C25.7873 27.6622 26.0409 27.5441 26.3094 27.3874C26.5781 27.2303 26.8072 27.0887 26.9966 26.9623C27.1861 26.8359 27.4239 26.6701 27.7103 26.465C27.9966 26.2598 28.184 26.127 28.2721 26.0659C29.0825 25.5078 31.1445 24.0903 34.4574 21.8137C35.1005 21.369 35.6379 20.8325 36.0696 20.2045C36.5016 19.5767 36.7173 18.9181 36.7173 18.2292C36.7173 17.6534 36.5079 17.1605 36.0894 16.7506C35.6708 16.3406 35.1752 16.1357 34.6026 16.1357H15.1478C14.4694 16.1357 13.9473 16.3625 13.5816 16.816C13.216 17.2696 13.0332 17.8365 13.0332 18.5168C13.0332 19.0663 13.2756 19.6618 13.7601 20.3028C14.2446 20.9439 14.7602 21.4477 15.3064 21.814Z" fill="url(#paint0_linear)"/>
<path d="M35.3955 23.2124C32.5058 25.1486 30.3115 26.6534 28.8139 27.7263C28.3116 28.0925 27.9042 28.3784 27.5913 28.5832C27.2785 28.7882 26.8623 28.9975 26.3424 29.2111C25.8226 29.425 25.3382 29.5317 24.8888 29.5317H24.8753H24.862C24.4127 29.5317 23.928 29.425 23.4082 29.2111C22.8885 28.9975 22.4721 28.7882 22.1593 28.5832C21.8466 28.3784 21.439 28.0925 20.9368 27.7263C19.7473 26.8629 17.5578 25.358 14.3682 23.2124C13.8659 22.8812 13.4209 22.5015 13.0332 22.0742V32.4622C13.0332 33.0383 13.2402 33.5308 13.6543 33.9408C14.0684 34.3509 14.5663 34.5559 15.1479 34.5559H34.6028C35.1842 34.5559 35.6821 34.3509 36.0962 33.9408C36.5105 33.5307 36.7174 33.0383 36.7174 32.4622V22.0742C36.3384 22.4927 35.898 22.8724 35.3955 23.2124Z" fill="url(#paint1_linear)"/>
<defs>
<linearGradient id="paint0_linear" x1="24.8753" y1="16.1357" x2="24.8753" y2="27.858" gradientUnits="userSpaceOnUse">
<stop stop-color="#56A0F3"/>
<stop offset="1" stop-color="#487EE8"/>
</linearGradient>
<linearGradient id="paint1_linear" x1="24.8753" y1="22.0742" x2="24.8753" y2="34.5559" gradientUnits="userSpaceOnUse">
<stop stop-color="#56A0F3"/>
<stop offset="1" stop-color="#487EE8"/>
</linearGradient>
</defs>
</svg>
