<svg width="38" height="39" viewBox="0 0 38 39" fill="none" xmlns="http://www.w3.org/2000/svg">
<circle cx="19" cy="19.0029" r="19" fill="white"/>
<path fill-rule="evenodd" clip-rule="evenodd" d="M19.0008 7.39941C12.176 7.39941 6.88672 12.3987 6.88672 19.1505C6.88672 22.6824 8.33456 25.7341 10.6916 27.8425C10.889 28.0204 11.0084 28.2666 11.0182 28.5323L11.084 30.687C11.1059 31.3744 11.8152 31.8205 12.4441 31.545L14.8474 30.4847C15.0522 30.3945 15.2788 30.3775 15.4933 30.436C16.5975 30.7407 17.7748 30.9015 19.0008 30.9015C25.8257 30.9015 31.1149 25.9023 31.1149 19.1505C31.1149 12.3987 25.8257 7.39941 19.0008 7.39941Z" fill="url(#paint0_linear)"/>
<path fill-rule="evenodd" clip-rule="evenodd" d="M11.7252 22.586L15.2839 16.9408C15.8494 16.0438 17.0632 15.8196 17.9115 16.4558L20.7413 18.5788C21.0021 18.7738 21.358 18.7714 21.6164 18.5764L25.4383 15.6758C25.9477 15.2882 26.6156 15.9 26.2719 16.4412L22.7157 22.0839C22.1502 22.9809 20.9363 23.2051 20.0881 22.569L17.2582 20.4459C16.9974 20.2509 16.6416 20.2534 16.3832 20.4484L12.5588 23.3514C12.0494 23.739 11.3816 23.1271 11.7252 22.586Z" fill="white"/>
<defs>
<linearGradient id="paint0_linear" x1="19.0008" y1="7.39941" x2="19.0008" y2="31.6279" gradientUnits="userSpaceOnUse">
<stop stop-color="#00B2FF"/>
<stop offset="1" stop-color="#006AFF"/>
</linearGradient>
</defs>
</svg>
