<svg width="71" height="71" viewBox="0 0 71 71" fill="none" xmlns="http://www.w3.org/2000/svg">
<circle cx="35.5332" cy="35.0029" r="35" fill="white"/>
<path fill-rule="evenodd" clip-rule="evenodd" d="M35.5332 13.627C22.9611 13.627 13.2178 22.8361 13.2178 35.2736C13.2178 41.7798 15.8849 47.4014 20.2267 51.2853C20.5904 51.6131 20.8104 52.0666 20.8284 52.556L20.9496 56.5252C20.99 57.7914 22.2966 58.6131 23.455 58.1057L27.8822 56.1525C28.2594 55.9864 28.6769 55.955 29.0721 56.0627C31.106 56.624 33.2747 56.9203 35.5332 56.9203C48.1053 56.9203 57.8486 47.7112 57.8486 35.2736C57.8486 22.8361 48.1053 13.627 35.5332 13.627Z" fill="url(#paint0_linear)"/>
<path fill-rule="evenodd" clip-rule="evenodd" d="M22.1348 41.6037L28.6902 31.2046C29.7319 29.5523 31.9679 29.1392 33.5305 30.3111L38.7434 34.222C39.2238 34.5812 39.8794 34.5767 40.3553 34.2175L47.3957 28.8743C48.3341 28.1604 49.5644 29.2874 48.9313 30.2842L42.3803 40.6787C41.3386 42.3311 39.1026 42.7442 37.5401 41.5722L32.3271 37.6614C31.8467 37.3022 31.1912 37.3067 30.7152 37.6659L23.6704 43.0136C22.732 43.7275 21.5017 42.6005 22.1348 41.6037Z" fill="white"/>
<defs>
<linearGradient id="paint0_linear" x1="35.5332" y1="13.627" x2="35.5332" y2="58.2584" gradientUnits="userSpaceOnUse">
<stop stop-color="#00B2FF"/>
<stop offset="1" stop-color="#006AFF"/>
</linearGradient>
</defs>
</svg>
