<svg width="38" height="38" viewBox="0 0 38 38" fill="none" xmlns="http://www.w3.org/2000/svg">
<g filter="url(#filter0_d)">
<circle cx="19" cy="17" r="15" fill="white"/>
<path fill-rule="evenodd" clip-rule="evenodd" d="M19.0013 7.83887C13.6132 7.83887 9.4375 11.7857 9.4375 17.116C9.4375 19.9044 10.5805 22.3136 12.4413 23.9782C12.5972 24.1186 12.6915 24.313 12.6992 24.5227L12.7511 26.2238C12.7685 26.7665 13.3284 27.1186 13.8249 26.9012L15.7223 26.0641C15.8839 25.9929 16.0629 25.9794 16.2322 26.0256C17.1039 26.2662 18.0333 26.3932 19.0013 26.3932C24.3893 26.3932 28.565 22.4464 28.565 17.116C28.565 11.7857 24.3893 7.83887 19.0013 7.83887Z" fill="url(#paint0_linear)"/>
<path fill-rule="evenodd" clip-rule="evenodd" d="M13.2581 19.8292L16.0676 15.3724C16.514 14.6643 17.4723 14.4873 18.142 14.9895L20.3761 16.6656C20.582 16.8195 20.8629 16.8176 21.0669 16.6637L24.0842 14.3737C24.4864 14.0678 25.0136 14.5508 24.7423 14.978L21.9348 19.4328C21.4883 20.1409 20.53 20.3179 19.8604 19.8157L17.6263 18.1396C17.4204 17.9857 17.1394 17.9876 16.9354 18.1415L13.9162 20.4334C13.514 20.7394 12.9868 20.2564 13.2581 19.8292Z" fill="white"/>
</g>
<defs>
<filter id="filter0_d" x="0" y="0" width="38" height="38" filterUnits="userSpaceOnUse" color-interpolation-filters="sRGB">
<feFlood flood-opacity="0" result="BackgroundImageFix"/>
<feColorMatrix in="SourceAlpha" type="matrix" values="0 0 0 0 0 0 0 0 0 0 0 0 0 0 0 0 0 0 127 0"/>
<feOffset dy="2"/>
<feGaussianBlur stdDeviation="2"/>
<feColorMatrix type="matrix" values="0 0 0 0 0 0 0 0 0 0 0 0 0 0 0 0 0 0 0.25 0"/>
<feBlend mode="normal" in2="BackgroundImageFix" result="effect1_dropShadow"/>
<feBlend mode="normal" in="SourceGraphic" in2="effect1_dropShadow" result="shape"/>
</filter>
<linearGradient id="paint0_linear" x1="19.0013" y1="7.83887" x2="19.0013" y2="26.9666" gradientUnits="userSpaceOnUse">
<stop stop-color="#00B2FF"/>
<stop offset="1" stop-color="#006AFF"/>
</linearGradient>
</defs>
</svg>
