<svg width="51" height="51" viewBox="0 0 51 51" fill="none" xmlns="http://www.w3.org/2000/svg">
<circle cx="25.1768" cy="25.0029" r="25" fill="white"/>
<path fill-rule="evenodd" clip-rule="evenodd" d="M25.1769 9.73438C16.1968 9.73438 9.2373 16.3123 9.2373 25.1963C9.2373 29.8435 11.1424 33.859 14.2437 36.6332C14.5035 36.8673 14.6606 37.1912 14.6734 37.5408L14.76 40.376C14.7889 41.2804 15.7222 41.8673 16.5496 41.5049L19.7119 40.1098C19.9813 39.9911 20.2796 39.9687 20.5618 40.0456C22.0146 40.4466 23.5637 40.6582 25.1769 40.6582C34.157 40.6582 41.1165 34.0803 41.1165 25.1963C41.1165 16.3123 34.157 9.73438 25.1769 9.73438Z" fill="url(#paint0_linear)"/>
<path fill-rule="evenodd" clip-rule="evenodd" d="M15.6066 29.7179L20.2891 22.29C21.0331 21.1098 22.6303 20.8147 23.7464 21.6518L27.4699 24.4452C27.8131 24.7018 28.2813 24.6986 28.6213 24.442L33.6501 20.6255C34.3204 20.1155 35.1992 20.9205 34.7469 21.6325L30.0677 29.0572C29.3236 30.2375 27.7265 30.5325 26.6104 29.6954L22.8869 26.902C22.5437 26.6454 22.0754 26.6486 21.7355 26.9052L16.7034 30.725C16.0332 31.2349 15.1544 30.4299 15.6066 29.7179Z" fill="white"/>
<defs>
<linearGradient id="paint0_linear" x1="25.1769" y1="9.73438" x2="25.1769" y2="41.614" gradientUnits="userSpaceOnUse">
<stop stop-color="#00B2FF"/>
<stop offset="1" stop-color="#006AFF"/>
</linearGradient>
</defs>
</svg>
