<svg width="59" height="59" viewBox="0 0 59 59" fill="none" xmlns="http://www.w3.org/2000/svg">
<circle cx="29.1768" cy="29.0029" r="29" fill="white"/>
<path fill-rule="evenodd" clip-rule="evenodd" d="M29.1774 11.291C18.7606 11.291 10.6875 18.9215 10.6875 29.2268C10.6875 34.6176 12.8974 39.2755 16.4949 42.4936C16.7962 42.7652 16.9785 43.141 16.9934 43.5465L17.0939 46.8353C17.1274 47.8844 18.21 48.5653 19.1698 48.1449L22.838 46.5265C23.1505 46.3888 23.4965 46.3628 23.8239 46.4521C25.5092 46.9171 27.3061 47.1627 29.1774 47.1627C39.5943 47.1627 47.6674 39.5322 47.6674 29.2268C47.6674 18.9215 39.5943 11.291 29.1774 11.291Z" fill="url(#paint0_linear)"/>
<path fill-rule="evenodd" clip-rule="evenodd" d="M18.0767 34.4728L23.5083 25.8564C24.3714 24.4874 26.2241 24.1451 27.5188 25.1161L31.8381 28.3565C32.2362 28.6542 32.7793 28.6504 33.1737 28.3528L39.0071 23.9256C39.7847 23.334 40.804 24.2679 40.2795 25.0938L34.8515 33.7064C33.9884 35.0755 32.1357 35.4178 30.841 34.4467L26.5218 31.2063C26.1237 30.9087 25.5805 30.9124 25.1862 31.21L19.349 35.641C18.5715 36.2325 17.5521 35.2987 18.0767 34.4728Z" fill="white"/>
<defs>
<linearGradient id="paint0_linear" x1="29.1774" y1="11.291" x2="29.1774" y2="48.2713" gradientUnits="userSpaceOnUse">
<stop stop-color="#00B2FF"/>
<stop offset="1" stop-color="#006AFF"/>
</linearGradient>
</defs>
</svg>
