<svg width="16" height="13" viewBox="0 0 16 13" fill="none" xmlns="http://www.w3.org/2000/svg">
<path d="M14.3637 3.23636C14.3701 3.37767 14.3735 3.52013 14.3735 3.66259C14.3735 8.00013 11.0723 13 5.03228 13C3.17828 13 1.4524 12.4583 0 11.5266C0.256814 11.557 0.518223 11.5725 0.78308 11.5725C2.32166 11.5725 3.73672 11.0475 4.8605 10.1675C3.42418 10.141 2.21135 9.19208 1.79367 7.88754C1.99361 7.92546 2.19986 7.94671 2.41071 7.94671C2.71004 7.94671 3.00075 7.90765 3.27595 7.8324C1.77414 7.5314 0.642895 6.20503 0.642895 4.61385C0.642895 4.60006 0.642896 4.5857 0.64347 4.57249C1.08586 4.81777 1.59201 4.96598 2.12977 4.98264C1.2496 4.39499 0.669898 3.38973 0.669898 2.25121C0.669898 1.6492 0.83134 1.08511 1.11401 0.600283C2.73245 2.58667 5.15236 3.89294 7.88021 4.0308C7.82391 3.79011 7.79575 3.54023 7.79575 3.28231C7.79575 1.46998 9.26539 0 11.078 0C12.0225 0 12.8746 0.398657 13.4744 1.03628C14.223 0.889223 14.9239 0.616941 15.5599 0.239539C15.3129 1.00641 14.7941 1.6492 14.1144 2.0559C14.7791 1.97663 15.4134 1.80085 16 1.53948C15.5622 2.19663 15.0055 2.77509 14.3637 3.23636Z" fill="black"/>
</svg>
