<svg width="19" height="13" viewBox="0 0 19 13" fill="none" xmlns="http://www.w3.org/2000/svg">
<path fill-rule="evenodd" clip-rule="evenodd" d="M16.3089 12.7412C17.2853 12.6323 18.0965 11.9007 18.3252 10.9089C18.6503 9.49636 18.6511 7.95433 18.6511 6.50013V6.46448C18.6511 5.02076 18.6511 3.49237 18.3287 2.09133C18.1006 1.09925 17.2893 0.367695 16.3124 0.258515C14.0001 0.000159571 11.6593 -0.00119162 9.32892 0.000159618C6.99804 -0.00119162 4.65716 0.000159571 2.34412 0.258515C1.36772 0.367695 0.556979 1.09952 0.32889 2.09133C0.0037835 3.50364 0 5.04594 0 6.50013C0 7.95433 0 9.49609 0.325107 10.9089C0.553195 11.9007 1.36394 12.6323 2.34034 12.7412C4.65338 12.9998 6.99426 13.0012 9.32514 12.9998C11.656 13.0012 13.9963 12.9998 16.3089 12.7412ZM9.56096 8.02266C8.68164 8.47853 7.80201 8.93455 6.91895 9.39246V3.22461C7.99172 3.78446 9.06084 4.34217 10.1322 4.90105C11.0349 5.37191 11.9391 5.84361 12.8485 6.31813C11.7491 6.88827 10.6553 7.45534 9.56096 8.02266Z" fill="black"/>
</svg>
