<svg width="13" height="13" viewBox="0 0 13 13" fill="none" xmlns="http://www.w3.org/2000/svg">
<path d="M12.9645 3.82205C12.934 3.13131 12.8223 2.65643 12.6623 2.24494C12.4972 1.80815 12.2433 1.4171 11.9105 1.09201C11.5855 0.76187 11.1918 0.505334 10.7601 0.342841C10.3462 0.182829 9.87384 0.0711277 9.18309 0.0406727C8.4872 0.00763853 8.26627 0 6.50128 0C4.73628 0 4.51536 0.00763853 3.82204 0.0380935C3.1313 0.0685485 2.65642 0.180349 2.24503 0.340262C1.80815 0.505334 1.4171 0.759291 1.09201 1.09201C0.761869 1.4171 0.505432 1.81073 0.342841 2.24246C0.182829 2.65643 0.0711276 3.12873 0.0406727 3.81947C0.00763852 4.51537 0 4.73629 0 6.50129C0 8.26629 0.00763852 8.48721 0.0380934 9.18053C0.0685483 9.87127 0.180349 10.3462 0.340361 10.7576C0.505432 11.1944 0.761869 11.5855 1.09201 11.9106C1.4171 12.2407 1.81073 12.4972 2.24245 12.6597C2.65642 12.8198 3.12872 12.9315 3.81956 12.9619C4.51278 12.9925 4.7338 13 6.4988 13C8.26379 13 8.48472 12.9925 9.17804 12.9619C9.86878 12.9315 10.3437 12.8198 10.755 12.6597C11.6287 12.322 12.3195 11.6312 12.6572 10.7576C12.8171 10.3437 12.9289 9.87127 12.9594 9.18053C12.9899 8.48721 12.9975 8.26629 12.9975 6.50129C12.9975 4.73629 12.9949 4.51537 12.9645 3.82205ZM11.7938 9.12974C11.7658 9.76463 11.6592 10.1075 11.5703 10.336C11.3518 10.9024 10.9024 11.3519 10.336 11.5703C10.1075 11.6592 9.76214 11.7658 9.12972 11.7937C8.44404 11.8243 8.2384 11.8318 6.50386 11.8318C4.76932 11.8318 4.56109 11.8243 3.87789 11.7937C3.243 11.7658 2.90016 11.6592 2.6716 11.5703C2.38977 11.4661 2.13323 11.3011 1.92501 11.0852C1.70914 10.8744 1.54407 10.6204 1.43991 10.3386C1.35103 10.1101 1.24439 9.76463 1.21651 9.13232C1.18596 8.44664 1.17842 8.24089 1.17842 6.50635C1.17842 4.77181 1.18596 4.56358 1.21651 3.88048C1.24439 3.24559 1.35103 2.90274 1.43991 2.67418C1.54407 2.39225 1.70914 2.13581 1.92759 1.92749C2.13829 1.71163 2.39225 1.54656 2.67418 1.44249C2.90274 1.35361 3.24816 1.24697 3.88047 1.21899C4.56615 1.18854 4.7719 1.1809 6.50634 1.1809C8.24346 1.1809 8.4491 1.18854 9.1323 1.21899C9.76719 1.24697 10.11 1.35361 10.3386 1.44249C10.6204 1.54656 10.877 1.71163 11.0852 1.92749C11.3011 2.13829 11.4661 2.39225 11.5703 2.67418C11.6592 2.90274 11.7658 3.24807 11.7938 3.88048C11.8242 4.56616 11.8319 4.77181 11.8319 6.50635C11.8319 8.24089 11.8242 8.44406 11.7938 9.12974Z" fill="black"/>
<path d="M6.50165 3.16211C4.65798 3.16211 3.16211 4.65786 3.16211 6.50161C3.16211 8.34537 4.65798 9.84112 6.50165 9.84112C8.34542 9.84112 9.84119 8.34537 9.84119 6.50161C9.84119 4.65786 8.34542 3.16211 6.50165 3.16211ZM6.50165 8.66787C5.30557 8.66787 4.33537 7.69778 4.33537 6.50161C4.33537 5.30545 5.30557 4.33536 6.50165 4.33536C7.69783 4.33536 8.66792 5.30545 8.66792 6.50161C8.66792 7.69778 7.69783 8.66787 6.50165 8.66787Z" fill="black"/>
<path d="M10.7527 3.0297C10.7527 3.46028 10.4036 3.8094 9.97297 3.8094C9.54244 3.8094 9.19336 3.46028 9.19336 3.0297C9.19336 2.59902 9.54244 2.25 9.97297 2.25C10.4036 2.25 10.7527 2.59902 10.7527 3.0297Z" fill="black"/>
</svg>
