<svg width="89" height="16" viewBox="0 0 89 16" fill="none" xmlns="http://www.w3.org/2000/svg">
<path d="M13.689 10.4125C13.9473 10.4125 14.0949 10.7249 14.0949 11.3843C14.0949 11.7314 13.9473 12.1479 13.6152 12.6337C13.3201 13.1196 12.9142 13.5708 12.3976 13.9873C11.9179 14.4038 11.3645 14.7508 10.7372 14.9938C10.1469 15.2714 9.55649 15.3755 8.96613 15.3755C8.19128 15.3755 7.67471 14.7161 7.37953 13.432C7.01055 14.022 6.49399 14.5079 5.86673 14.8896C5.23947 15.2714 4.42772 15.4796 3.35769 15.4796C2.28765 15.4796 1.5497 15.202 0.922441 14.5773C0.295181 13.9873 0 13.2237 0 12.3561C0 9.99607 0.848646 8.12194 2.50904 6.7684C3.2101 6.2131 3.87425 5.83133 4.50151 5.6578C5.12877 5.48427 5.75603 5.38015 6.42019 5.38015C7.08435 5.38015 7.63781 5.48427 8.08059 5.72721C8.30197 5.31074 8.52336 5.13721 8.78164 5.13721C9.29821 5.13721 9.77788 5.34544 10.2575 5.76192C10.7372 6.17839 10.9586 6.59487 10.9586 6.94193C10.7372 7.39311 10.442 7.94841 10.0362 8.57312C9.92547 9.19783 9.85167 10.1002 9.85167 11.2455C9.85167 12.3908 9.99926 12.9808 10.3313 12.9808C10.7003 12.9808 11.6597 12.252 13.1356 10.829C13.3938 10.5514 13.5783 10.4125 13.689 10.4125ZM3.24699 11.662C3.24699 12.7379 3.65287 13.2585 4.50151 13.2585C5.38706 13.2585 6.16191 12.8073 6.75227 11.9049C6.97366 11.5926 7.12125 11.2108 7.26884 10.7943C7.26884 9.23253 7.41643 7.9137 7.71161 6.8031C6.53088 7.01134 5.46085 7.56664 4.57531 8.43429C3.68977 9.30195 3.24699 10.3778 3.24699 11.662Z" fill="white"/>
<path d="M23.4658 9.02359C23.4658 8.57241 23.1706 8.32947 22.6171 8.32947C22.2482 8.32947 21.8054 8.67653 21.3257 9.37065C20.8461 10.0648 20.514 10.8283 20.2926 11.6266V11.6613C20.2926 12.1471 20.3664 12.633 20.514 13.1189C20.6616 13.6048 20.7354 13.9519 20.7354 14.1601C20.7354 14.646 20.1081 15.0972 18.8536 15.5484C18.6691 15.6178 18.4846 15.6525 18.337 15.6525C17.968 15.6525 17.7098 15.4789 17.5622 15.0972C17.4146 14.7501 17.3408 14.2642 17.3408 13.6395C17.3408 13.0148 17.3777 12.4248 17.4146 11.9042C17.4515 11.3489 17.4884 10.863 17.5253 10.3771C17.5622 9.92595 17.5991 9.50948 17.636 9.16242C17.6729 8.81535 17.7098 8.5377 17.7098 8.29476C17.7098 7.80887 17.4884 7.60064 17.0087 7.60064C16.5659 7.60064 16.0125 8.12123 15.4221 9.093C14.8317 10.0995 14.4997 10.8977 14.4997 11.4877C14.4997 12.0777 14.5735 12.633 14.721 13.1189C14.8686 13.6048 14.9424 13.9519 14.9424 14.1601C14.9424 14.646 14.3152 15.0972 13.0607 15.5484C12.8762 15.6178 12.6917 15.6525 12.5441 15.6525C12.1751 15.6525 11.9168 15.4789 11.7692 15.0972C11.6216 14.7501 11.5479 14.1948 11.5479 13.4313C11.5479 11.453 11.6216 10.0301 11.8061 9.16242C12.0275 7.87829 12.5441 6.66357 13.3189 5.48356C13.5772 5.10179 13.8724 4.89355 14.1676 4.89355C14.6473 4.89355 15.09 5.27532 15.5328 6.00415C15.6435 6.21239 15.7542 6.38592 15.7911 6.55945C16.4921 5.7265 17.3408 5.31003 18.3001 5.31003C18.9274 5.31003 19.5177 5.51827 19.9974 5.90003C20.514 6.2818 20.7354 6.80239 20.7354 7.3924V7.63534C21.6209 6.59416 22.7278 6.03886 24.0193 6.03886C24.831 6.03886 25.4214 6.2471 25.8272 6.62886C26.2331 7.01063 26.4545 7.49652 26.4545 8.05182C26.4545 8.60712 26.4176 9.12771 26.3069 9.57889C26.2331 10.0301 26.1224 10.4813 26.0117 10.863C25.901 11.2795 25.7903 11.6266 25.7165 11.9389C25.6428 12.2513 25.569 12.4942 25.569 12.6677C25.569 12.8413 25.6428 12.9454 25.7534 12.9454C25.9748 12.9454 26.2331 12.8066 26.5652 12.5636C26.8973 12.286 27.2294 12.0083 27.5245 11.696C27.8566 11.3836 28.1518 11.106 28.4101 10.8283C28.6684 10.5507 28.8897 10.4465 28.9635 10.4465C29.1849 10.4465 29.2587 10.6895 29.2587 11.1407C29.2587 12.1124 28.7422 13.0495 27.709 13.9866C26.6759 14.8889 25.569 15.3748 24.3882 15.3748C23.3182 15.3748 22.8016 14.4725 22.8016 12.633C22.8016 12.1819 22.8754 11.5571 23.0599 10.7242C23.392 9.96066 23.4658 9.37065 23.4658 9.02359Z" fill="white"/>
<path d="M35.6428 13.5706C34.4621 14.8547 33.06 15.5141 31.4365 15.5141C29.813 15.5141 28.5954 15.1324 27.7836 14.3341C26.9719 13.5359 26.566 12.5641 26.6029 11.4188C26.6029 9.7529 27.1564 8.32995 28.2633 7.14994C29.3702 5.96993 30.8461 5.34521 32.6541 5.34521C33.4659 5.34521 34.13 5.44933 34.6466 5.62286C35.5321 5.96993 35.938 6.28228 35.938 6.55993C35.938 6.76817 35.3107 6.90699 34.13 6.90699C32.9124 6.90699 31.8793 7.32347 31.0675 8.087C30.2558 8.88525 29.8499 9.85702 29.8499 11.0717C29.8499 11.6964 30.0344 12.217 30.4403 12.6335C30.8461 13.05 31.3996 13.2582 32.1006 13.2582C32.8017 13.2582 33.3921 13.1194 33.8717 12.8418C32.8386 12.1823 32.2851 11.2106 32.2851 9.96114C32.2851 9.30172 32.5434 8.67701 33.06 8.15642C33.5766 7.60112 34.2407 7.32347 35.0894 7.32347C35.9011 7.32347 36.4915 7.53171 36.8604 7.94818C37.2294 8.36465 37.377 8.91995 37.377 9.61408C37.377 10.2735 37.1925 11.0023 36.8604 11.7659H37.008C37.6722 11.7659 38.2257 11.5229 38.7053 11.1064C38.8898 10.9329 39.0374 10.7941 39.1481 10.6553C39.2588 10.5164 39.4064 10.4817 39.5171 10.4817C39.7385 10.4817 39.8123 10.7247 39.8123 11.1759C39.8123 12.0088 39.554 12.6682 39.0005 13.0847C38.4839 13.5012 37.8936 13.7094 37.2294 13.7094C36.6391 13.7094 36.0856 13.64 35.6428 13.5706ZM35.4583 11.1411C35.7166 10.6553 35.8273 10.1694 35.8273 9.68349C35.8273 9.1976 35.6797 8.98937 35.3476 8.98937C35.2001 8.98937 35.0894 9.09348 35.0156 9.26702C34.9418 9.44055 34.868 9.61408 34.868 9.78761C34.868 10.3429 35.0525 10.7941 35.4583 11.1411Z" fill="white"/>
<path d="M88.0019 13.4315C88.0019 14.5768 87.0057 15.5139 85.7881 15.5139C84.5705 15.5139 83.5742 14.5768 83.5742 13.4315C83.5742 12.2862 84.5705 11.3491 85.7881 11.3491C87.0057 11.3491 88.0019 12.2862 88.0019 13.4315Z" fill="#A5DFFF"/>
<path d="M62.9474 10.7936C63.2057 10.7936 63.3164 11.1059 63.3164 11.7654C63.3164 12.1124 63.1688 12.5289 62.8367 13.0148C62.5415 13.5007 62.1356 13.9518 61.6191 14.3683C61.1394 14.7848 60.5859 15.1319 59.9587 15.3748C59.3683 15.6525 58.778 15.7566 58.2245 15.7566C57.671 15.7566 57.2652 15.6525 56.9331 15.4789C56.6379 15.2707 56.3796 15.0277 56.1951 14.6807C55.9368 14.1948 55.7524 13.2924 55.5679 11.9736C55.4203 10.6548 55.2358 9.71769 55.0882 9.1971C54.7192 9.12769 54.3872 8.98886 54.092 8.78063C53.7968 8.57239 53.6492 8.29474 53.6492 7.98238C53.6492 7.67003 53.7968 7.42708 54.092 7.28826C54.3872 7.14944 54.7561 7.08002 55.1251 7.08002C55.531 7.08002 55.8631 7.18414 56.1582 7.35767C56.5641 7.04532 56.8962 6.66355 57.1545 6.21237C57.4128 5.76119 57.5234 5.17118 57.5234 4.44235C57.5234 3.71352 57.2652 3.12352 56.7117 2.67234C56.1951 2.22116 55.4203 2.01292 54.3871 2.01292C53.354 2.01292 52.5792 2.08233 52.0257 2.25586C51.4722 2.39469 50.9926 2.56822 50.6236 2.74175C50.2177 2.91528 49.8856 3.08881 49.5905 3.22764C49.2953 3.36646 49.0001 3.47058 48.7418 3.47058C48.4835 3.47058 48.3359 3.40117 48.3359 3.22764C48.3359 3.05411 48.4835 2.81116 48.7418 2.4641C49.037 2.11704 49.4429 1.73527 49.9963 1.38821C51.3615 0.485848 52.9112 0.034668 54.6454 0.034668C56.3796 0.034668 57.7817 0.347024 58.9256 0.971735C60.2539 1.70056 60.8811 2.77646 60.8811 4.23412C60.8811 5.41413 60.5491 6.42061 59.8849 7.21885C59.2207 8.01709 58.3721 8.57239 57.3759 8.91945C57.5972 9.37063 57.7817 9.85652 57.9293 10.4118C58.0769 10.9324 58.2245 11.4183 58.3352 11.8695C58.4828 12.3207 58.6304 12.6677 58.778 12.9801C58.9625 13.2577 59.1469 13.4313 59.4052 13.4313C59.6635 13.4313 59.9587 13.2924 60.2908 13.0148C60.6228 12.7371 60.9918 12.4595 61.3239 12.1471C61.656 11.8348 61.9881 11.5224 62.2463 11.2448C62.6522 10.9324 62.8367 10.7936 62.9474 10.7936ZM53.3171 3.29705C53.5016 3.29705 53.6123 3.53999 53.6123 3.99117C53.6123 4.47706 53.5754 4.89353 53.5385 5.31001C53.3909 6.10825 53.2433 6.87179 53.0219 7.56591C52.5054 9.44004 52.2102 10.5506 52.2102 10.863V13.9171C52.2102 14.6807 51.915 15.1666 51.2877 15.4442C50.9926 15.583 50.7343 15.6872 50.476 15.7913C50.2177 15.8954 49.9225 15.9648 49.5905 15.9648C48.9632 15.9648 48.668 15.3054 48.668 13.9518C48.668 12.5983 49.0001 10.9324 49.6643 8.88474C50.3284 6.83708 51.0295 5.2753 51.7305 4.23412C51.8781 4.02588 52.0995 3.81764 52.3578 3.5747C52.6899 3.40117 52.985 3.29705 53.3171 3.29705Z" fill="#A5DFFF"/>
<path d="M82.0247 10.7936C82.283 10.7936 82.3937 11.106 82.3937 11.7654C82.3937 12.1125 82.2461 12.5289 81.914 13.0148C81.6188 13.5007 81.213 13.9519 80.6964 14.3684C80.2167 14.7848 79.6633 15.1319 79.036 15.3748C78.4456 15.6525 77.7815 15.7566 77.1173 15.7566C76.4532 15.7566 75.9366 15.5484 75.5307 15.1319C75.1618 14.7154 74.9773 14.2642 74.9773 13.7436C74.9773 13.2231 75.0511 12.6678 75.2355 12.043C75.42 11.4183 75.6045 10.7242 75.8259 10.0301C76.3794 8.19066 76.6746 6.87182 76.6746 6.14299C76.6746 5.83064 76.6377 5.5877 76.527 5.41417C76.4532 5.24063 76.2687 5.13652 76.0104 5.13652C75.5676 5.13652 75.088 5.37946 74.6083 5.90005C74.0917 6.38594 73.6489 7.04536 73.2062 7.80889C72.173 9.57891 71.6565 11.3142 71.5827 13.0148C71.6196 13.2231 71.6565 13.3966 71.6565 13.6048C71.6934 13.8131 71.6934 14.0213 71.6934 14.2295C71.6934 14.6807 71.472 15.0972 70.9923 15.4443C70.5126 15.826 69.9961 15.9996 69.4426 15.9996C69.1105 15.9996 68.8523 15.826 68.7047 15.5137C68.5571 15.2013 68.4464 14.8195 68.4464 14.3684C68.4464 13.9172 68.5571 13.2925 68.7785 12.4942C68.9998 11.696 69.2581 10.863 69.5164 9.96068C70.2175 7.60065 70.5864 5.86535 70.5864 4.72004C70.5864 4.13004 70.5126 3.67886 70.3651 3.33179C70.2175 2.98473 69.9223 2.84591 69.4795 2.84591C68.6678 2.84591 67.8929 3.3665 67.1181 4.44239C66.3432 5.51828 65.6422 7.18418 65.0149 9.40538C64.8673 9.99538 64.7197 10.4813 64.6459 10.9324L64.609 11.3142C64.9042 12.5983 65.0149 13.4313 65.0149 13.8131C65.0149 14.6113 64.7197 15.1666 64.0925 15.4443C63.7973 15.5831 63.539 15.6872 63.2807 15.7913C63.0224 15.8954 62.7641 15.9648 62.4321 15.9648C61.6941 15.9648 61.3251 15.3054 61.3251 13.9866C61.3251 12.6678 61.731 10.0648 62.5059 6.21241C62.801 4.82416 62.9117 4.06062 62.9117 3.88709C62.9117 2.77649 62.6166 2.18649 61.9893 2.18649C61.7679 2.18649 61.5834 2.2559 61.4358 2.36002C61.2513 2.46414 61.1038 2.60296 60.9193 2.70708C60.7348 2.84591 60.5872 2.95003 60.4027 3.05414C60.2182 3.15826 60.0337 3.22768 59.7754 3.22768C59.5541 3.22768 59.4434 3.05414 59.4434 2.67238C59.4434 1.90884 59.8123 1.28413 60.5872 0.798242C61.3251 0.312356 62.1738 0.0347062 63.2069 0.0347062C64.5352 0.0347062 65.3101 0.624711 65.5684 1.77002C65.6422 2.11708 65.6791 2.49885 65.716 2.88061C66.8229 0.937067 68.1881 0 69.8485 0C71.6565 0 72.6896 0.832948 72.9848 2.46414C73.0586 2.95003 73.0955 3.43591 73.0955 3.99121V4.16474C74.0548 2.91532 75.1987 2.29061 76.4901 2.29061C78.335 2.29061 79.2943 3.33179 79.2943 5.44887C79.2943 6.35123 79.1467 7.42712 78.8515 8.67655C78.5563 9.89126 78.3349 10.7936 78.1874 11.3142C78.0398 11.8348 77.966 12.2513 77.966 12.5636C77.966 13.0842 78.1505 13.3619 78.5563 13.3619C78.9622 13.3619 79.8847 12.6331 81.3606 11.2101C81.6926 10.9324 81.914 10.7936 82.0247 10.7936Z" fill="#A5DFFF"/>
<path d="M50.4772 8.01709C50.8462 8.01709 51.0306 8.36415 51.0306 9.02357C51.0306 9.68299 50.8831 10.4118 50.551 11.1754C50.2189 11.9389 49.7392 12.6677 49.0751 13.3965C48.4109 14.1254 47.5992 14.7154 46.566 15.236C45.5329 15.7566 44.3522 15.9995 42.987 15.9995C41.6217 15.9995 40.4041 15.583 39.371 14.7154C38.3379 13.8477 37.8213 12.5983 37.8213 10.9671C37.8213 9.33592 38.0796 7.84356 38.5592 6.52472C39.0389 5.20589 39.7031 4.06058 40.4779 3.08881C41.2897 2.11704 42.1752 1.38821 43.2083 0.83291C44.2415 0.312317 45.2008 0.034668 46.0864 0.034668C47.673 0.034668 48.4847 0.694085 48.4847 2.04763C48.4847 2.81116 48.3371 3.43587 48.0419 3.88705C47.7468 4.33823 47.4516 4.58118 47.1195 4.58118C46.7136 4.58118 46.3446 4.44235 46.0495 4.13C45.7543 3.81764 45.3853 3.67882 45.0163 3.64411C44.6474 3.64411 43.6142 3.6094 42.7656 4.89353C42.1752 5.79589 42.249 5.72648 42.0276 6.31649C41.5848 7.5312 41.2897 8.50298 41.2897 10.1342C41.3266 10.9324 42.0645 12.1471 42.7287 12.5289C43.1714 12.8065 43.7249 13.0148 44.3522 12.9454C45.6805 12.7718 46.4184 12.1818 46.9719 11.6612C47.4885 11.1406 47.9312 10.6895 48.4109 10.1689C48.8906 9.64828 49.2965 9.16239 49.6654 8.74592C50.0344 8.26003 50.2927 8.01709 50.4772 8.01709Z" fill="#A5DFFF"/>
</svg>
