<svg width="59" height="59" viewBox="0 0 59 59" fill="none" xmlns="http://www.w3.org/2000/svg">
<circle cx="29.1768" cy="29.0029" r="29" fill="url(#paint0_linear)"/>
<path d="M29.234 39.7401C23.4408 39.7401 20.8024 36.8015 20.8024 34.6119C20.8024 33.5171 21.6627 32.7104 22.8099 32.7104C25.2763 32.7104 24.6453 36.4557 29.2914 36.4557C31.643 36.4557 33.0196 35.0152 33.0196 33.6899C33.0196 32.8832 32.5608 31.9613 31.0121 31.6156L25.8499 30.2903C21.7201 29.2531 20.9744 26.8907 20.9744 24.7587C20.9744 20.3219 25.0469 18.7085 28.8898 18.7085C32.4461 18.7085 36.6905 20.6676 36.6905 23.3758C36.6905 24.5282 35.7155 25.162 34.6257 25.162C32.5034 25.162 32.8476 22.1657 28.6031 22.1657C26.4808 22.1657 25.391 23.1453 25.391 24.5282C25.391 25.9111 27.0544 26.3721 28.4883 26.7178L32.274 27.5821C36.4611 28.504 37.5509 30.9817 37.5509 33.3442C37.5509 36.9743 34.7404 39.7401 29.234 39.7401ZM45.2369 32.0765C45.409 31.1546 45.4663 30.175 45.4663 29.1955C45.4663 20.0914 38.1819 12.7159 29.1766 12.7159C28.2015 12.7159 27.2838 12.7735 26.3661 12.9464C24.9321 12.1397 23.3261 11.6787 21.548 11.6787C16.2137 11.6787 11.8545 16.0579 11.8545 21.4743C11.8545 23.2605 12.3134 24.8739 13.1164 26.3144C12.9443 27.2364 12.8869 28.2159 12.8869 29.1955C12.8869 38.2996 20.1714 45.6751 29.1766 45.6751C30.1517 45.6751 31.0695 45.6175 31.9872 45.4446C33.4211 46.2513 35.0272 46.7123 36.8053 46.7123C42.1396 46.7123 46.4988 42.3331 46.4988 36.9167C46.4988 35.1881 46.0399 33.5171 45.2369 32.0765Z" fill="white"/>
<defs>
<linearGradient id="paint0_linear" x1="29.1768" y1="0.00292969" x2="29.1768" y2="58.0029" gradientUnits="userSpaceOnUse">
<stop stop-color="#00B7EC"/>
<stop offset="1" stop-color="#0080D7"/>
</linearGradient>
</defs>
</svg>
