<svg width="38" height="38" viewBox="0 0 38 38" fill="none" xmlns="http://www.w3.org/2000/svg">
<g filter="url(#filter0_d)">
<circle cx="19" cy="17" r="15" fill="url(#paint0_linear)"/>
<path d="M19.0285 22.5546C16.032 22.5546 14.6673 21.0346 14.6673 19.902C14.6673 19.3357 15.1123 18.9185 15.7056 18.9185C16.9814 18.9185 16.655 20.8557 19.0581 20.8557C20.2745 20.8557 20.9865 20.1106 20.9865 19.4251C20.9865 19.0079 20.7492 18.531 19.9482 18.3522L17.2781 17.6667C15.142 17.1302 14.7563 15.9083 14.7563 14.8055C14.7563 12.5106 16.8627 11.6761 18.8505 11.6761C20.6899 11.6761 22.8853 12.6895 22.8853 14.0902C22.8853 14.6863 22.3809 15.0142 21.8173 15.0142C20.7195 15.0142 20.8975 13.4644 18.7021 13.4644C17.6044 13.4644 17.0407 13.971 17.0407 14.6863C17.0407 15.4016 17.9011 15.64 18.6428 15.8189L20.6009 16.2659C22.7666 16.7428 23.3303 18.0244 23.3303 19.2463C23.3303 21.124 21.8766 22.5546 19.0285 22.5546ZM27.3058 18.5906C27.3948 18.1138 27.4245 17.6071 27.4245 17.1004C27.4245 12.3914 23.6567 8.57651 18.9988 8.57651C18.4944 8.57651 18.0197 8.60631 17.5451 8.69573C16.8034 8.27847 15.9727 8.04004 15.053 8.04004C12.2938 8.04004 10.0391 10.3051 10.0391 13.1067C10.0391 14.0306 10.2764 14.8651 10.6918 15.6102C10.6028 16.0871 10.5731 16.5938 10.5731 17.1004C10.5731 21.8095 14.3409 25.6244 18.9988 25.6244C19.5031 25.6244 19.9778 25.5946 20.4525 25.5052C21.1942 25.9224 22.0249 26.1608 22.9446 26.1608C25.7038 26.1608 27.9585 23.8957 27.9585 21.0942C27.9585 20.2001 27.7212 19.3357 27.3058 18.5906Z" fill="white"/>
</g>
<defs>
<filter id="filter0_d" x="0" y="0" width="38" height="38" filterUnits="userSpaceOnUse" color-interpolation-filters="sRGB">
<feFlood flood-opacity="0" result="BackgroundImageFix"/>
<feColorMatrix in="SourceAlpha" type="matrix" values="0 0 0 0 0 0 0 0 0 0 0 0 0 0 0 0 0 0 127 0"/>
<feOffset dy="2"/>
<feGaussianBlur stdDeviation="2"/>
<feColorMatrix type="matrix" values="0 0 0 0 0 0 0 0 0 0 0 0 0 0 0 0 0 0 0.25 0"/>
<feBlend mode="normal" in2="BackgroundImageFix" result="effect1_dropShadow"/>
<feBlend mode="normal" in="SourceGraphic" in2="effect1_dropShadow" result="shape"/>
</filter>
<linearGradient id="paint0_linear" x1="19" y1="2" x2="19" y2="32" gradientUnits="userSpaceOnUse">
<stop stop-color="#00B7EC"/>
<stop offset="1" stop-color="#0080D7"/>
</linearGradient>
</defs>
</svg>
