<svg width="71" height="71" viewBox="0 0 71 71" fill="none" xmlns="http://www.w3.org/2000/svg">
<circle cx="35.5332" cy="35.0029" r="35" fill="url(#paint0_linear)"/>
<path d="M35.6022 47.9629C28.6105 47.9629 25.4261 44.4163 25.4261 41.7736C25.4261 40.4523 26.4645 39.4787 27.849 39.4787C30.8257 39.4787 30.0642 43.999 35.6714 43.999C38.5097 43.999 40.1711 42.2604 40.1711 40.661C40.1711 39.6874 39.6173 38.5747 37.7482 38.1574L31.5179 36.558C26.5337 35.3062 25.6338 32.4549 25.6338 29.8819C25.6338 24.5271 30.5488 22.5799 35.1869 22.5799C39.4788 22.5799 44.6015 24.9443 44.6015 28.2128C44.6015 29.6037 43.4247 30.3687 42.1094 30.3687C39.5481 30.3687 39.9634 26.7524 34.8407 26.7524C32.2794 26.7524 30.9641 27.9347 30.9641 29.6037C30.9641 31.2727 32.9717 31.8291 34.7023 32.2463L39.2712 33.2895C44.3246 34.4021 45.6399 37.3925 45.6399 40.2437C45.6399 44.6249 42.2478 47.9629 35.6022 47.9629ZM54.9161 38.7138C55.1238 37.6011 55.193 36.4189 55.193 35.2366C55.193 24.2489 46.4014 15.3475 35.533 15.3475C34.3562 15.3475 33.2486 15.417 32.141 15.6256C30.4103 14.652 28.472 14.0957 26.326 14.0957C19.8881 14.0957 14.627 19.3809 14.627 25.9179C14.627 28.0738 15.1808 30.021 16.1499 31.7595C15.9422 32.8722 15.873 34.0544 15.873 35.2366C15.873 46.2244 24.6646 55.1258 35.533 55.1258C36.7098 55.1258 37.8174 55.0563 38.925 54.8476C40.6557 55.8212 42.594 56.3776 44.74 56.3776C51.1779 56.3776 56.439 51.0923 56.439 44.5553C56.439 42.4691 55.8852 40.4523 54.9161 38.7138Z" fill="white"/>
<defs>
<linearGradient id="paint0_linear" x1="35.5332" y1="0.00292969" x2="35.5332" y2="70.0029" gradientUnits="userSpaceOnUse">
<stop stop-color="#00B7EC"/>
<stop offset="1" stop-color="#0080D7"/>
</linearGradient>
</defs>
</svg>
