<svg width="51" height="51" viewBox="0 0 51 51" fill="none" xmlns="http://www.w3.org/2000/svg">
<circle cx="25.1768" cy="25.0029" r="25" fill="url(#paint0_linear)"/>
<path d="M25.2265 34.2592C20.2324 34.2592 17.9578 31.7259 17.9578 29.8383C17.9578 28.8945 18.6995 28.1991 19.6884 28.1991C21.8147 28.1991 21.2707 31.4279 25.2759 31.4279C27.3032 31.4279 28.49 30.186 28.49 29.0435C28.49 28.3481 28.0944 27.5533 26.7593 27.2553L22.3091 26.1128C18.749 25.2187 18.1062 23.1821 18.1062 21.3442C18.1062 17.5193 21.6169 16.1285 24.9298 16.1285C27.9955 16.1285 31.6545 17.8174 31.6545 20.152C31.6545 21.1455 30.8139 21.6919 29.8745 21.6919C28.0449 21.6919 28.3416 19.1089 24.6826 19.1089C22.853 19.1089 21.9135 19.9533 21.9135 21.1455C21.9135 22.3377 23.3475 22.735 24.5837 23.0331L27.8471 23.7782C31.4567 24.573 32.3962 26.7089 32.3962 28.7455C32.3962 31.8749 29.9733 34.2592 25.2265 34.2592ZM39.0221 27.6527C39.1704 26.8579 39.2199 26.0135 39.2199 25.169C39.2199 17.3207 32.9401 10.9625 25.177 10.9625C24.3364 10.9625 23.5453 11.0122 22.7541 11.1612C21.518 10.4657 20.1335 10.0684 18.6006 10.0684C14.0021 10.0684 10.2441 13.8435 10.2441 18.5128C10.2441 20.0527 10.6397 21.4435 11.332 22.6854C11.1836 23.4801 11.1342 24.3246 11.1342 25.169C11.1342 33.0174 17.4139 39.3756 25.177 39.3756C26.0176 39.3756 26.8088 39.3259 27.5999 39.1769C28.8361 39.8723 30.2206 40.2697 31.7534 40.2697C36.352 40.2697 40.1099 36.4945 40.1099 31.8252C40.1099 30.335 39.7143 28.8945 39.0221 27.6527Z" fill="white"/>
<defs>
<linearGradient id="paint0_linear" x1="25.1768" y1="0.00292969" x2="25.1768" y2="50.0029" gradientUnits="userSpaceOnUse">
<stop stop-color="#00B7EC"/>
<stop offset="1" stop-color="#0080D7"/>
</linearGradient>
</defs>
</svg>
