<svg width="38" height="39" viewBox="0 0 38 39" fill="none" xmlns="http://www.w3.org/2000/svg">
<circle cx="19" cy="19.0029" r="19" fill="url(#paint0_linear)"/>
<path d="M19.0389 26.0384C15.2434 26.0384 13.5147 24.1131 13.5147 22.6785C13.5147 21.9612 14.0784 21.4327 14.83 21.4327C16.4459 21.4327 16.0326 23.8865 19.0765 23.8865C20.6173 23.8865 21.5192 22.9427 21.5192 22.0745C21.5192 21.5459 21.2185 20.9419 20.2039 20.7154L16.8217 19.8471C14.116 19.1676 13.6275 17.6198 13.6275 16.223C13.6275 13.3161 16.2956 12.259 18.8134 12.259C21.1434 12.259 23.9242 13.5426 23.9242 15.3169C23.9242 16.0719 23.2854 16.4872 22.5714 16.4872C21.1809 16.4872 21.4064 14.5241 18.6255 14.5241C17.2351 14.5241 16.5211 15.1659 16.5211 16.0719C16.5211 16.978 17.6109 17.28 18.5504 17.5065L21.0306 18.0728C23.7739 18.6768 24.4879 20.3001 24.4879 21.848C24.4879 24.2263 22.6465 26.0384 19.0389 26.0384ZM29.5236 21.0174C29.6363 20.4134 29.6739 19.7716 29.6739 19.1298C29.6739 13.1651 24.9013 8.33285 19.0013 8.33285C18.3625 8.33285 17.7612 8.3706 17.1599 8.48386C16.2205 7.95533 15.1682 7.65332 14.0033 7.65332C10.5084 7.65332 7.65234 10.5224 7.65234 14.0711C7.65234 15.2414 7.95298 16.2985 8.47909 17.2422C8.36635 17.8463 8.32877 18.4881 8.32877 19.1298C8.32877 25.0946 13.1014 29.9268 19.0013 29.9268C19.6402 29.9268 20.2415 29.8891 20.8427 29.7758C21.7822 30.3043 22.8344 30.6063 23.9994 30.6063C27.4943 30.6063 30.3503 27.7372 30.3503 24.1886C30.3503 23.056 30.0497 21.9612 29.5236 21.0174Z" fill="white"/>
<defs>
<linearGradient id="paint0_linear" x1="19" y1="0.00292969" x2="19" y2="38.0029" gradientUnits="userSpaceOnUse">
<stop stop-color="#00B7EC"/>
<stop offset="1" stop-color="#0080D7"/>
</linearGradient>
</defs>
</svg>
