<svg width="71" height="70" viewBox="0 0 71 70" fill="none" xmlns="http://www.w3.org/2000/svg">
<path d="M35.5332 70C54.8632 70 70.5332 54.33 70.5332 35C70.5332 15.67 54.8632 0 35.5332 0C16.2032 0 0.533203 15.67 0.533203 35C0.533203 54.33 16.2032 70 35.5332 70Z" fill="url(#paint0_linear)"/>
<path d="M52.5555 20.131L46.3004 51.6428C46.3004 51.6428 45.4218 53.8328 43.022 52.7837L28.5971 41.729L23.3517 39.1981L14.5263 36.2213C14.5263 36.2213 13.1756 35.7361 13.0445 34.687C12.9133 33.638 14.5787 33.0741 14.5787 33.0741L49.6837 19.3049C49.6705 19.3049 52.5555 18.0329 52.5555 20.131Z" fill="white"/>
<path d="M27.495 51.302C27.495 51.302 27.0754 51.2627 26.5508 49.5973C26.0263 47.9319 23.3643 39.1982 23.3643 39.1982L44.5688 25.7306C44.5688 25.7306 45.7884 24.9832 45.749 25.7306C45.749 25.7306 45.972 25.8618 45.3163 26.4781C44.6606 27.0945 28.6621 41.4669 28.6621 41.4669" fill="#CBDDEC"/>
<path d="M34.1433 45.9652L28.4389 51.1712C28.4389 51.1712 27.993 51.5122 27.5078 51.3024L28.5962 41.6377" fill="#ADC6DD"/>
<defs>
<linearGradient id="paint0_linear" x1="35.5307" y1="0" x2="35.5307" y2="69.7398" gradientUnits="userSpaceOnUse">
<stop stop-color="#71CAFB"/>
<stop offset="1" stop-color="#1B8DE7"/>
<stop offset="1" stop-color="#4191D0"/>
</linearGradient>
</defs>
</svg>
