<svg width="59" height="58" viewBox="0 0 59 58" fill="none" xmlns="http://www.w3.org/2000/svg">
<path d="M29.1768 58C45.193 58 58.1768 45.0163 58.1768 29C58.1768 12.9837 45.193 0 29.1768 0C13.1605 0 0.176758 12.9837 0.176758 29C0.176758 45.0163 13.1605 58 29.1768 58Z" fill="url(#paint0_linear)"/>
<path d="M43.2809 16.6778L38.0981 42.7876C38.0981 42.7876 37.3701 44.6021 35.3817 43.7329L23.4297 34.5733L19.0835 32.4762L11.771 30.0098C11.771 30.0098 10.6519 29.6078 10.5432 28.7385C10.4346 27.8693 11.8145 27.4021 11.8145 27.4021L40.9014 15.9933C40.8905 15.9933 43.2809 14.9393 43.2809 16.6778Z" fill="white"/>
<path d="M22.5164 42.5069C22.5164 42.5069 22.1687 42.4743 21.7341 41.0944C21.2994 39.7145 19.0938 32.4781 19.0938 32.4781L36.6632 21.3192C36.6632 21.3192 37.6737 20.6999 37.6411 21.3192C37.6411 21.3192 37.8259 21.4279 37.2826 21.9385C36.7393 22.4492 23.4834 34.3578 23.4834 34.3578" fill="#CBDDEC"/>
<path d="M28.0253 38.0856L23.2988 42.3992C23.2988 42.3992 22.9294 42.6817 22.5273 42.5079L23.4292 34.5" fill="#ADC6DD"/>
<defs>
<linearGradient id="paint0_linear" x1="29.1747" y1="0" x2="29.1747" y2="57.7844" gradientUnits="userSpaceOnUse">
<stop stop-color="#71CAFB"/>
<stop offset="1" stop-color="#1B8DE7"/>
<stop offset="1" stop-color="#4191D0"/>
</linearGradient>
</defs>
</svg>
