<svg width="38" height="38" viewBox="0 0 38 38" fill="none" xmlns="http://www.w3.org/2000/svg">
<path d="M19 38C29.4934 38 38 29.4934 38 19C38 8.50659 29.4934 0 19 0C8.50659 0 0 8.50659 0 19C0 29.4934 8.50659 38 19 38Z" fill="url(#paint0_linear)"/>
<path d="M28.2419 10.9283L24.8463 28.0347C24.8463 28.0347 24.3693 29.2236 23.0666 28.6541L15.2359 22.6529L12.3884 21.279L7.59748 19.6631C7.59748 19.6631 6.86424 19.3997 6.79306 18.8302C6.72187 18.2607 7.62595 17.9546 7.62595 17.9546L26.6829 10.4798C26.6758 10.4798 28.2419 9.78932 28.2419 10.9283Z" fill="white"/>
<path d="M14.6369 27.8491C14.6369 27.8491 14.4091 27.8277 14.1244 26.9236C13.8396 26.0195 12.3945 21.2784 12.3945 21.2784L23.9056 13.9675C23.9056 13.9675 24.5676 13.5617 24.5463 13.9675C24.5463 13.9675 24.6673 14.0386 24.3114 14.3732C23.9554 14.7078 15.2705 22.51 15.2705 22.51" fill="#CBDDEC"/>
<path d="M18.2466 24.9527L15.15 27.7789C15.15 27.7789 14.9079 27.964 14.6445 27.85L15.2354 22.6035" fill="#ADC6DD"/>
<defs>
<linearGradient id="paint0_linear" x1="18.9987" y1="0" x2="18.9987" y2="37.8587" gradientUnits="userSpaceOnUse">
<stop stop-color="#71CAFB"/>
<stop offset="1" stop-color="#1B8DE7"/>
<stop offset="1" stop-color="#4191D0"/>
</linearGradient>
</defs>
</svg>
