<svg width="51" height="50" viewBox="0 0 51 50" fill="none" xmlns="http://www.w3.org/2000/svg">
<path d="M25.1768 50C38.9839 50 50.1768 38.8071 50.1768 25C50.1768 11.1929 38.9839 0 25.1768 0C11.3696 0 0.176758 11.1929 0.176758 25C0.176758 38.8071 11.3696 50 25.1768 50Z" fill="url(#paint0_linear)"/>
<path d="M37.3358 14.3776L32.8679 36.8861C32.8679 36.8861 32.2403 38.4503 30.5262 37.701L20.2227 29.8048L16.476 27.997L10.1721 25.8707C10.1721 25.8707 9.20732 25.5241 9.11365 24.7748C9.01999 24.0254 10.2096 23.6227 10.2096 23.6227L35.2845 13.7875C35.2751 13.7875 37.3358 12.8789 37.3358 14.3776Z" fill="white"/>
<path d="M19.4349 36.6442C19.4349 36.6442 19.1352 36.6161 18.7605 35.4265C18.3858 34.2369 16.4844 27.9986 16.4844 27.9986L31.6305 18.3789C31.6305 18.3789 32.5016 17.845 32.4735 18.3789C32.4735 18.3789 32.6327 18.4726 32.1644 18.9128C31.6961 19.353 20.2686 29.6191 20.2686 29.6191" fill="#CBDDEC"/>
<path d="M24.1839 32.8323L20.1094 36.5509C20.1094 36.5509 19.7909 36.7944 19.4443 36.6445L20.2218 29.7412" fill="#ADC6DD"/>
<defs>
<linearGradient id="paint0_linear" x1="25.175" y1="0" x2="25.175" y2="49.8141" gradientUnits="userSpaceOnUse">
<stop stop-color="#71CAFB"/>
<stop offset="1" stop-color="#1B8DE7"/>
<stop offset="1" stop-color="#4191D0"/>
</linearGradient>
</defs>
</svg>
