<svg width="38" height="38" viewBox="0 0 38 38" fill="none" xmlns="http://www.w3.org/2000/svg">
<g filter="url(#filter0_d)">
<path d="M19 32C27.2843 32 34 25.2843 34 17C34 8.71573 27.2843 2 19 2C10.7157 2 4 8.71573 4 17C4 25.2843 10.7157 32 19 32Z" fill="#665CAC"/>
<path d="M21.3712 20.418C21.517 20.3729 21.2034 20.3668 21.3712 20.418V20.418Z" fill="white"/>
<path d="M19.01 11.6948C19.0082 11.6948 19.0064 11.6944 19.0045 11.6944C19.0027 11.6942 19.005 11.6944 19.01 11.6948Z" fill="white"/>
<path d="M19.0039 11.6934C19.0056 11.6934 19.0072 11.6935 19.0089 11.6935C19.1205 11.6975 20.935 11.7472 19.0039 11.6934Z" fill="white"/>
<path d="M22.061 15.656C22.0531 15.5173 22.0577 15.6812 22.061 15.656V15.656Z" fill="white"/>
<path d="M20.8106 15.6056C20.8132 15.6054 20.8158 15.6039 20.8183 15.6035C20.8112 15.6035 20.8003 15.6037 20.7891 15.6042C20.7963 15.6044 20.803 15.6057 20.8106 15.6056Z" fill="white"/>
<path d="M20.8104 15.6069C20.8029 15.607 20.7962 15.6057 20.7889 15.6055C20.7525 15.6066 20.7149 15.6088 20.8104 15.6069Z" fill="white"/>
<path d="M20.8163 15.6045C20.8136 15.6048 20.8111 15.6064 20.8086 15.6066C20.8283 15.605 20.8266 15.6045 20.8163 15.6045Z" fill="white"/>
<path d="M26.3961 10.2503C25.9232 9.81732 24.0176 8.43298 19.7735 8.41304C19.7735 8.41304 14.7659 8.1111 12.3248 10.35C10.9661 11.7087 10.4876 13.6969 10.4391 16.1636C10.3879 18.6304 10.3224 23.2477 14.7773 24.501H14.7801L14.7773 26.4123C14.7773 26.4123 14.7488 27.1871 15.2587 27.3437C15.8739 27.5346 16.2357 26.9478 16.8253 26.3126C17.1472 25.9651 17.5944 25.4524 17.9305 25.0621C20.9755 25.3185 23.3198 24.7317 23.5847 24.6463C24.1999 24.4469 27.6807 23.9997 28.2447 19.3824C28.8286 14.6226 27.9627 11.609 26.3961 10.2503ZM26.9116 19.0405C26.4331 22.8973 23.6103 23.1423 23.0919 23.3075C22.8697 23.3787 20.8131 23.8914 18.2268 23.7205C18.2268 23.7205 16.2984 26.0448 15.6973 26.6516C15.6033 26.7456 15.4923 26.7854 15.4182 26.7655C15.3157 26.7399 15.2872 26.6174 15.2872 26.4379C15.29 26.1816 15.3043 23.2619 15.3043 23.2619C15.3014 23.2619 15.3014 23.2619 15.3043 23.2619C11.5386 22.2166 11.758 18.2829 11.8007 16.2234C11.8434 14.164 12.2308 12.4778 13.3787 11.3441C15.4438 9.4755 19.6965 9.75465 19.6965 9.75465C23.2884 9.77174 25.0089 10.8513 25.4077 11.213C26.7322 12.3496 27.4073 15.0641 26.9116 19.0405Z" fill="white"/>
<path fill-rule="evenodd" clip-rule="evenodd" d="M19.7388 14.5545C19.7489 14.3641 19.9115 14.2179 20.1019 14.228C20.6153 14.2553 21.0565 14.4112 21.3741 14.7393C21.6903 15.0658 21.8387 15.5162 21.864 16.0402C21.8732 16.2306 21.7263 16.3925 21.5358 16.4017C21.3454 16.4109 21.1835 16.264 21.1743 16.0735C21.1541 15.6547 21.0404 15.3873 20.878 15.2196C20.7172 15.0535 20.4633 14.9387 20.0652 14.9176C19.8748 14.9075 19.7287 14.7449 19.7388 14.5545Z" fill="white"/>
<path fill-rule="evenodd" clip-rule="evenodd" d="M19.3759 13.2593C19.3894 13.0691 19.5545 12.9259 19.7447 12.9394C20.7762 13.0126 21.615 13.3683 22.2278 14.0358C22.8355 14.698 23.1208 15.5194 23.099 16.4762C23.0947 16.6668 22.9367 16.8178 22.746 16.8135C22.5554 16.8092 22.4044 16.6511 22.4087 16.4605C22.4268 15.6626 22.1937 15.0199 21.719 14.5028C21.2494 13.9911 20.5899 13.6916 19.6958 13.6282C19.5056 13.6147 19.3624 13.4495 19.3759 13.2593Z" fill="white"/>
<path fill-rule="evenodd" clip-rule="evenodd" d="M18.9531 12.0374C18.9544 11.8467 19.1099 11.6931 19.3006 11.6943C20.7196 11.7034 21.9265 12.1788 22.892 13.1197L22.8924 13.1201C23.8687 14.0748 24.3487 15.3665 24.3607 16.962C24.3621 17.1526 24.2087 17.3084 24.018 17.3098C23.8273 17.3112 23.6716 17.1578 23.6701 16.9671C23.6593 15.5149 23.2278 14.414 22.4098 13.614C21.5808 12.8062 20.5489 12.3929 19.2962 12.3849C19.1055 12.3836 18.9519 12.2281 18.9531 12.0374Z" fill="white"/>
<path d="M20.1333 19.2722C20.1333 19.2722 20.4723 19.3006 20.6517 19.0756L21.0049 18.6313C21.1758 18.4091 21.5888 18.2695 21.9933 18.4945C22.2183 18.6227 22.6228 18.8705 22.8735 19.0557C23.1412 19.2522 23.691 19.7108 23.691 19.7108C23.953 19.9302 24.0129 20.2549 23.8363 20.5967C23.8363 20.5995 23.8334 20.6024 23.8334 20.6024C23.6511 20.9243 23.4061 21.229 23.0957 21.511C23.0928 21.5139 23.0928 21.5139 23.09 21.5167C22.8365 21.7275 22.5858 21.85 22.3408 21.8785C22.3123 21.8842 22.2753 21.887 22.2326 21.8842C22.1243 21.8842 22.019 21.8699 21.9136 21.8358L21.905 21.8244C21.5262 21.719 20.8967 21.4512 19.8456 20.873C19.162 20.497 18.5951 20.1125 18.1166 19.7308C17.8631 19.5314 17.6039 19.3035 17.339 19.0414C17.3304 19.0329 17.3219 19.0243 17.3133 19.0158C17.3048 19.0073 17.2962 18.9987 17.2877 18.9902C17.2792 18.9816 17.2706 18.9731 17.2621 18.9645C17.2535 18.956 17.245 18.9474 17.2364 18.9389C16.9744 18.674 16.7465 18.4148 16.5471 18.1613C16.1654 17.6827 15.7809 17.1131 15.4049 16.4323C14.8267 15.3812 14.5589 14.7517 14.4535 14.3729L14.4421 14.3643C14.4079 14.2589 14.3908 14.1535 14.3937 14.0453C14.3908 14.0026 14.3937 13.9655 14.3994 13.937C14.4279 13.6921 14.5504 13.4414 14.7611 13.1879C14.764 13.1851 14.764 13.1851 14.7668 13.1822C15.0488 12.8717 15.3508 12.6268 15.6755 12.4445C15.6783 12.4445 15.6812 12.4416 15.6812 12.4416C16.023 12.265 16.3477 12.3248 16.5671 12.5869C16.5699 12.5897 17.0256 13.1366 17.2222 13.4044C17.4073 13.6579 17.658 14.0595 17.7833 14.2846C18.0084 14.689 17.8688 15.1021 17.6466 15.273L17.2023 15.6262C16.9772 15.8085 17.0057 16.1446 17.0057 16.1446C17.0057 16.1446 17.6665 18.6427 20.1333 19.2722Z" fill="white"/>
</g>
<defs>
<filter id="filter0_d" x="0" y="0" width="38" height="38" filterUnits="userSpaceOnUse" color-interpolation-filters="sRGB">
<feFlood flood-opacity="0" result="BackgroundImageFix"/>
<feColorMatrix in="SourceAlpha" type="matrix" values="0 0 0 0 0 0 0 0 0 0 0 0 0 0 0 0 0 0 127 0"/>
<feOffset dy="2"/>
<feGaussianBlur stdDeviation="2"/>
<feColorMatrix type="matrix" values="0 0 0 0 0 0 0 0 0 0 0 0 0 0 0 0 0 0 0.25 0"/>
<feBlend mode="normal" in2="BackgroundImageFix" result="effect1_dropShadow"/>
<feBlend mode="normal" in="SourceGraphic" in2="effect1_dropShadow" result="shape"/>
</filter>
</defs>
</svg>
