<svg width="59" height="59" viewBox="0 0 59 59" fill="none" xmlns="http://www.w3.org/2000/svg">
<path d="M29.1768 58.2588C45.193 58.2588 58.1768 45.275 58.1768 29.2588C58.1768 13.2425 45.193 0.258789 29.1768 0.258789C13.1605 0.258789 0.176758 13.2425 0.176758 29.2588C0.176758 45.275 13.1605 58.2588 29.1768 58.2588Z" fill="#665CAC"/>
<path d="M33.7624 35.8656C34.0444 35.7786 33.438 35.7669 33.7624 35.8656V35.8656Z" fill="white"/>
<path d="M29.1865 18.998C29.1898 18.998 29.193 18.9984 29.1963 18.9984C29.412 19.006 32.92 19.1018 29.1865 18.998Z" fill="white"/>
<path d="M35.0895 26.6595C35.0742 26.3923 35.0831 26.7079 35.0895 26.6595V26.6595Z" fill="white"/>
<path d="M32.6725 26.5607C32.6776 26.5603 32.6825 26.5573 32.6873 26.5566C32.6736 26.5566 32.6525 26.557 32.6309 26.5579C32.6449 26.5583 32.6577 26.5608 32.6725 26.5607Z" fill="white"/>
<path d="M32.6735 26.5632C32.6588 26.5635 32.6459 26.5611 32.6319 26.5605C32.5614 26.5627 32.4888 26.567 32.6735 26.5632Z" fill="white"/>
<path d="M32.6887 26.5596C32.6836 26.5602 32.6787 26.5632 32.6738 26.5636C32.7119 26.5606 32.7086 26.5596 32.6887 26.5596Z" fill="white"/>
<path d="M43.4776 16.2082C42.5634 15.3712 38.8792 12.6948 30.6739 12.6562C30.6739 12.6562 20.9926 12.0725 16.2731 16.401C13.6463 19.0278 12.7211 22.8717 12.6275 27.6407C12.5284 32.4097 12.4017 41.3365 21.0146 43.7596H21.0201L21.0146 47.4548C21.0146 47.4548 20.9596 48.9527 21.9453 49.2556C23.1348 49.6245 23.8342 48.4901 24.9741 47.262C25.5964 46.5902 26.461 45.5989 27.1108 44.8445C32.9978 45.3401 37.53 44.2057 38.0422 44.0405C39.2317 43.655 45.9612 42.7904 47.0516 33.8636C48.1805 24.6614 46.5064 18.835 43.4776 16.2082ZM44.4743 33.2027C43.5492 40.6592 38.0918 41.1328 37.0895 41.4522C36.6599 41.5899 32.6839 42.5811 27.6836 42.2507C27.6836 42.2507 23.9554 46.7444 22.7934 47.9174C22.6117 48.0991 22.3969 48.1762 22.2537 48.1377C22.0554 48.0881 22.0004 47.8513 22.0004 47.5044C22.0059 47.0087 22.0334 41.3641 22.0334 41.3641C22.0279 41.3641 22.0279 41.3641 22.0334 41.3641C14.7532 39.343 15.1772 31.7379 15.2598 27.7563C15.3424 23.7748 16.0914 20.5147 18.3107 18.3229C22.3033 14.7103 30.5252 15.25 30.5252 15.25C37.4695 15.283 40.7957 17.3702 41.5667 18.0696C44.1274 20.2669 45.4325 25.515 44.4743 33.2027Z" fill="white"/>
<path fill-rule="evenodd" clip-rule="evenodd" d="M30.6074 24.5286C30.627 24.1605 30.9413 23.8779 31.3094 23.8974C32.302 23.9502 33.155 24.2516 33.7691 24.8858C34.3804 25.5171 34.6673 26.3878 34.7162 27.4009C34.734 27.7692 34.45 28.0821 34.0817 28.0999C33.7135 28.1177 33.4006 27.8336 33.3828 27.4654C33.3436 26.6557 33.1238 26.1386 32.81 25.8145C32.4989 25.4933 32.0082 25.2715 31.2386 25.2306C30.8704 25.211 30.5878 24.8967 30.6074 24.5286Z" fill="white"/>
<path fill-rule="evenodd" clip-rule="evenodd" d="M29.9021 22.0255C29.9282 21.6578 30.2475 21.3809 30.6152 21.407C32.6095 21.5486 34.2311 22.2362 35.4157 23.5269C36.5907 24.807 37.1423 26.395 37.1002 28.2448C37.0918 28.6133 36.7863 28.9053 36.4177 28.897C36.0491 28.8886 35.7571 28.583 35.7655 28.2144C35.8006 26.6719 35.3499 25.4294 34.4322 24.4296C33.5242 23.4404 32.2491 22.8614 30.5207 22.7387C30.1529 22.7125 29.876 22.3933 29.9021 22.0255Z" fill="white"/>
<path fill-rule="evenodd" clip-rule="evenodd" d="M29.086 19.6623C29.0883 19.2936 29.3891 18.9967 29.7577 18.999C32.5011 19.0166 34.8345 19.9356 36.7011 21.7548L36.7018 21.7555C38.5895 23.6012 39.5174 26.0985 39.5405 29.1831C39.5433 29.5518 39.2466 29.8528 38.878 29.8556C38.5093 29.8584 38.2083 29.5617 38.2055 29.1931C38.1845 26.3855 37.3504 24.257 35.7689 22.7105C34.1662 21.1486 32.1711 20.3495 29.7492 20.334C29.3805 20.3317 29.0836 20.0309 29.086 19.6623Z" fill="white"/>
<path d="M31.3673 33.6506C31.3673 33.6506 32.0226 33.7057 32.3695 33.2706L33.0524 32.4115C33.3828 31.982 34.1813 31.7121 34.9633 32.1472C35.3984 32.395 36.1804 32.8741 36.665 33.2321C37.1826 33.6121 38.2455 34.4987 38.2455 34.4987C38.7521 34.9227 38.8678 35.5505 38.5263 36.2113C38.5263 36.2168 38.5208 36.2224 38.5208 36.2224C38.1684 36.8446 37.6948 37.4339 37.0945 37.9791C37.089 37.9846 37.089 37.9846 37.0835 37.9901C36.5934 38.3976 36.1088 38.6344 35.6352 38.6895C35.5801 38.7005 35.5085 38.706 35.4259 38.7005C35.2166 38.7005 35.0129 38.673 34.8091 38.6069L34.7926 38.5849C34.0602 38.3811 32.8431 37.8634 30.8111 36.7455C29.4894 36.0186 28.3935 35.2752 27.4683 34.5372C26.9782 34.1517 26.4771 33.7112 25.9649 33.2045C25.9484 33.188 25.9319 33.1715 25.9154 33.155C25.8988 33.1385 25.8823 33.1219 25.8658 33.1054C25.8493 33.0889 25.8328 33.0724 25.8162 33.0558C25.7997 33.0393 25.7832 33.0228 25.7667 33.0063C25.26 32.4941 24.8195 31.993 24.434 31.5029C23.6961 30.5777 22.9526 29.4763 22.2257 28.1601C21.1078 26.1281 20.5901 24.911 20.3864 24.1786L20.3643 24.1621C20.2982 23.9583 20.2652 23.7546 20.2707 23.5453C20.2652 23.4627 20.2707 23.3911 20.2817 23.336C20.3368 22.8624 20.5736 22.3778 20.9811 21.8877C20.9866 21.8822 20.9866 21.8822 20.9921 21.8767C21.5373 21.2764 22.1211 20.8028 22.7489 20.4504C22.7544 20.4504 22.7599 20.4449 22.7599 20.4449C23.4207 20.1034 24.0485 20.2191 24.4725 20.7257C24.478 20.7312 25.3592 21.7886 25.7391 22.3062C26.0971 22.7964 26.5817 23.5728 26.824 24.0079C27.2591 24.7899 26.9892 25.5884 26.5597 25.9188L25.7006 26.6017C25.2655 26.9541 25.3206 27.6039 25.3206 27.6039C25.3206 27.6039 26.5982 32.4336 31.3673 33.6506Z" fill="white"/>
</svg>
