<svg width="38" height="39" viewBox="0 0 38 39" fill="none" xmlns="http://www.w3.org/2000/svg">
<path d="M19 38.2588C29.4934 38.2588 38 29.7522 38 19.2588C38 8.76538 29.4934 0.258789 19 0.258789C8.50659 0.258789 0 8.76538 0 19.2588C0 29.7522 8.50659 38.2588 19 38.2588Z" fill="#665CAC"/>
<path d="M22.0058 23.5867C22.1906 23.5297 21.7933 23.522 22.0058 23.5867V23.5867Z" fill="white"/>
<path d="M19.0078 12.5371C19.01 12.5371 19.012 12.5373 19.0142 12.5373C19.1555 12.5423 21.4539 12.6051 19.0078 12.5371Z" fill="white"/>
<path d="M22.8766 17.5556C22.8666 17.3805 22.8724 17.5873 22.8766 17.5556V17.5556Z" fill="white"/>
<path d="M21.2909 17.4919C21.2943 17.4916 21.2975 17.4897 21.3007 17.4893C21.2917 17.4893 21.2779 17.4895 21.2637 17.4901C21.2729 17.4904 21.2813 17.492 21.2909 17.4919Z" fill="white"/>
<path d="M21.2914 17.493C21.2818 17.4931 21.2733 17.4915 21.2641 17.4912C21.218 17.4926 21.1704 17.4954 21.2914 17.493Z" fill="white"/>
<path d="M21.3007 17.4902C21.2974 17.4907 21.2942 17.4926 21.291 17.4929C21.316 17.4909 21.3138 17.4902 21.3007 17.4902Z" fill="white"/>
<path d="M28.3672 10.7077C27.7682 10.1593 25.3545 8.4058 19.9785 8.38054C19.9785 8.38054 13.6356 7.99809 10.5436 10.834C8.82255 12.555 8.2164 15.0734 8.15507 18.198C8.09012 21.3225 8.00714 27.1711 13.6501 28.7586H13.6537L13.6501 31.1796C13.6501 31.1796 13.614 32.161 14.2598 32.3594C15.0392 32.6012 15.4974 31.8579 16.2442 31.0533C16.6519 30.6131 17.2184 29.9637 17.6442 29.4694C21.5011 29.7941 24.4705 29.0509 24.8061 28.9426C25.5854 28.6901 29.9944 28.1236 30.7088 22.275C31.4484 16.246 30.3516 12.4287 28.3672 10.7077ZM29.0202 21.8421C28.4141 26.7273 24.8385 27.0376 24.1819 27.2469C23.9005 27.3371 21.2955 27.9865 18.0194 27.77C18.0194 27.77 15.5768 30.7142 14.8155 31.4827C14.6964 31.6017 14.5557 31.6522 14.4619 31.627C14.332 31.5945 14.2959 31.4394 14.2959 31.2121C14.2995 30.8874 14.3176 27.1891 14.3176 27.1891C14.314 27.1891 14.314 27.1891 14.3176 27.1891C9.54776 25.865 9.82558 20.8823 9.8797 18.2737C9.93382 15.6651 10.4245 13.5292 11.8785 12.0932C14.4944 9.72633 19.8811 10.0799 19.8811 10.0799C24.4308 10.1016 26.6101 11.469 27.1152 11.9272C28.7929 13.3668 29.648 16.8053 29.0202 21.8421Z" fill="white"/>
<path fill-rule="evenodd" clip-rule="evenodd" d="M19.9381 16.1602C19.9509 15.919 20.1569 15.7339 20.3981 15.7467C21.0484 15.7813 21.6072 15.9787 22.0096 16.3943C22.4101 16.8079 22.598 17.3784 22.6301 18.0421C22.6418 18.2834 22.4557 18.4884 22.2144 18.5001C21.9732 18.5117 21.7681 18.3256 21.7565 18.0843C21.7308 17.5538 21.5868 17.2151 21.3812 17.0027C21.1774 16.7923 20.8559 16.647 20.3516 16.6202C20.1105 16.6074 19.9253 16.4014 19.9381 16.1602Z" fill="white"/>
<path fill-rule="evenodd" clip-rule="evenodd" d="M19.4738 14.5197C19.4909 14.2787 19.7001 14.0973 19.941 14.1144C21.2476 14.2072 22.31 14.6577 23.0861 15.5033C23.856 16.342 24.2173 17.3824 24.1898 18.5943C24.1843 18.8358 23.9841 19.0271 23.7426 19.0216C23.5011 19.0161 23.3098 18.8159 23.3153 18.5745C23.3383 17.5638 23.043 16.7498 22.4418 16.0947C21.8469 15.4466 21.0115 15.0673 19.879 14.9869C19.6381 14.9698 19.4567 14.7606 19.4738 14.5197Z" fill="white"/>
<path fill-rule="evenodd" clip-rule="evenodd" d="M18.9395 12.9717C18.941 12.7301 19.1381 12.5356 19.3796 12.5371C21.177 12.5486 22.7057 13.1507 23.9287 14.3426L23.9292 14.3431C25.1659 15.5523 25.7739 17.1885 25.789 19.2094C25.7908 19.451 25.5965 19.6482 25.3549 19.65C25.1134 19.6518 24.9161 19.4575 24.9143 19.216C24.9006 17.3765 24.3541 15.982 23.3179 14.9687C22.2679 13.9455 20.9608 13.4219 19.374 13.4118C19.1325 13.4102 18.9379 13.2132 18.9395 12.9717Z" fill="white"/>
<path d="M20.4337 22.1361C20.4337 22.1361 20.863 22.1722 21.0903 21.8872L21.5377 21.3243C21.7542 21.0429 22.2774 20.8661 22.7897 21.1512C23.0747 21.3135 23.5871 21.6274 23.9046 21.8619C24.2437 22.1109 24.9401 22.6918 24.9401 22.6918C25.272 22.9696 25.3478 23.3809 25.1241 23.8139C25.1241 23.8175 25.1205 23.8211 25.1205 23.8211C24.8896 24.2288 24.5793 24.6149 24.186 24.9721C24.1824 24.9757 24.1824 24.9757 24.1788 24.9793C23.8577 25.2463 23.5402 25.4014 23.2299 25.4375C23.1938 25.4447 23.1469 25.4483 23.0928 25.4447C22.9557 25.4447 22.8222 25.4267 22.6887 25.3834L22.6779 25.3689C22.198 25.2354 21.4006 24.8963 20.0693 24.1639C19.2033 23.6876 18.4854 23.2005 17.8792 22.717C17.5581 22.4645 17.2298 22.1758 16.8942 21.8439C16.8834 21.8331 16.8726 21.8223 16.8617 21.8114C16.8509 21.8006 16.8401 21.7898 16.8293 21.779C16.8184 21.7681 16.8076 21.7573 16.7968 21.7465C16.786 21.7357 16.7752 21.7248 16.7643 21.714C16.4324 21.3785 16.1437 21.0501 15.8912 20.729C15.4077 20.1229 14.9206 19.4013 14.4444 18.539C13.7119 17.2076 13.3728 16.4102 13.2393 15.9304L13.2249 15.9195C13.1816 15.786 13.1599 15.6525 13.1635 15.5154C13.1599 15.4613 13.1635 15.4144 13.1707 15.3783C13.2068 15.068 13.362 14.7505 13.629 14.4294C13.6326 14.4258 13.6326 14.4258 13.6362 14.4222C13.9934 14.0289 14.3758 13.7186 14.7871 13.4877C14.7907 13.4877 14.7943 13.4841 14.7943 13.4841C15.2273 13.2604 15.6386 13.3362 15.9164 13.6681C15.92 13.6717 16.4973 14.3645 16.7463 14.7036C16.9808 15.0247 17.2983 15.5335 17.4571 15.8185C17.7421 16.3308 17.5653 16.854 17.2839 17.0705L16.721 17.5179C16.436 17.7488 16.4721 18.1745 16.4721 18.1745C16.4721 18.1745 17.3091 21.3388 20.4337 22.1361Z" fill="white"/>
</svg>
