<svg width="51" height="51" viewBox="0 0 51 51" fill="none" xmlns="http://www.w3.org/2000/svg">
<path d="M25.1768 50.2588C38.9839 50.2588 50.1768 39.0659 50.1768 25.2588C50.1768 11.4517 38.9839 0.258789 25.1768 0.258789C11.3696 0.258789 0.176758 11.4517 0.176758 25.2588C0.176758 39.0659 11.3696 50.2588 25.1768 50.2588Z" fill="#665CAC"/>
<path d="M29.1297 30.9546C29.3728 30.8796 28.85 30.8695 29.1297 30.9546V30.9546Z" fill="white"/>
<path d="M25.1855 16.4131C25.1884 16.4131 25.1911 16.4134 25.1939 16.4134C25.3799 16.42 28.4041 16.5026 25.1855 16.4131Z" fill="white"/>
<path d="M30.2739 23.0185C30.2607 22.7882 30.2684 23.0603 30.2739 23.0185V23.0185Z" fill="white"/>
<path d="M28.1902 22.9332C28.1946 22.9328 28.1988 22.9302 28.203 22.9297C28.1912 22.9297 28.173 22.93 28.1543 22.9308C28.1664 22.9311 28.1775 22.9333 28.1902 22.9332Z" fill="white"/>
<path d="M28.1915 22.9359C28.1789 22.9361 28.1678 22.934 28.1557 22.9336C28.095 22.9355 28.0323 22.9391 28.1915 22.9359Z" fill="white"/>
<path d="M28.2042 22.9326C28.1998 22.9332 28.1956 22.9357 28.1914 22.9361C28.2243 22.9335 28.2214 22.9326 28.2042 22.9326Z" fill="white"/>
<path d="M37.5055 14.0086C36.7174 13.287 33.5414 10.9798 26.4678 10.9465C26.4678 10.9465 18.1219 10.4433 14.0534 14.1748C11.7889 16.4393 10.9913 19.7529 10.9106 23.8642C10.8252 27.9754 10.716 35.6709 18.1409 37.7598H18.1456L18.1409 40.9453C18.1409 40.9453 18.0934 42.2366 18.9432 42.4977C19.9686 42.8158 20.5715 41.8378 21.5543 40.7791C22.0907 40.2 22.836 39.3454 23.3962 38.695C28.4712 39.1223 32.3783 38.1443 32.8198 38.0019C33.8452 37.6696 39.6466 36.9243 40.5865 29.2287C41.5598 21.2958 40.1165 16.2731 37.5055 14.0086ZM38.3648 28.6591C37.5672 35.087 32.8625 35.4953 31.9985 35.7706C31.6282 35.8893 28.2006 36.7439 23.89 36.459C23.89 36.459 20.676 40.3329 19.6743 41.3441C19.5176 41.5007 19.3325 41.5672 19.209 41.534C19.0381 41.4913 18.9907 41.2871 18.9907 40.988C18.9954 40.5608 19.0191 35.6947 19.0191 35.6947C19.0144 35.6947 19.0144 35.6947 19.0191 35.6947C12.7431 33.9524 13.1086 27.3962 13.1799 23.9639C13.2511 20.5315 13.8967 17.7211 15.8099 15.8316C19.2518 12.7173 26.3396 13.1826 26.3396 13.1826C32.3261 13.211 35.1935 15.0103 35.8581 15.6132C38.0657 17.5074 39.1908 22.0317 38.3648 28.6591Z" fill="white"/>
<path fill-rule="evenodd" clip-rule="evenodd" d="M26.411 21.1807C26.4278 20.8633 26.6988 20.6197 27.0161 20.6366C27.8718 20.682 28.6071 20.9418 29.1366 21.4886C29.6636 22.0328 29.9109 22.7835 29.9531 23.6568C29.9684 23.9743 29.7235 24.244 29.4061 24.2594C29.0886 24.2747 28.8189 24.0298 28.8035 23.7124C28.7698 23.0143 28.5803 22.5686 28.3098 22.2892C28.0416 22.0123 27.6186 21.8211 26.9551 21.7858C26.6377 21.769 26.3941 21.498 26.411 21.1807Z" fill="white"/>
<path fill-rule="evenodd" clip-rule="evenodd" d="M25.8032 19.023C25.8257 18.706 26.101 18.4672 26.418 18.4898C28.1372 18.6118 29.5351 19.2046 30.5564 20.3172C31.5693 21.4208 32.0447 22.7898 32.0085 24.3844C32.0013 24.7021 31.7379 24.9539 31.4201 24.9466C31.1024 24.9394 30.8507 24.676 30.8579 24.3583C30.8881 23.0285 30.4996 21.9573 29.7085 21.0955C28.9257 20.2427 27.8265 19.7436 26.3365 19.6378C26.0195 19.6152 25.7807 19.34 25.8032 19.023Z" fill="white"/>
<path fill-rule="evenodd" clip-rule="evenodd" d="M25.0996 16.9858C25.1017 16.668 25.3609 16.412 25.6787 16.4141C28.0437 16.4292 30.0552 17.2214 31.6644 18.7897L31.665 18.7903C33.2923 20.3815 34.0923 22.5343 34.1122 25.1934C34.1145 25.5112 33.8588 25.7708 33.541 25.7732C33.2232 25.7756 32.9637 25.5199 32.9613 25.2021C32.9432 22.7817 32.2241 20.9468 30.8608 19.6136C29.4791 18.2672 27.7593 17.5783 25.6714 17.5649C25.3536 17.5629 25.0976 17.3036 25.0996 16.9858Z" fill="white"/>
<path d="M27.0659 29.0444C27.0659 29.0444 27.6308 29.0919 27.9299 28.7169L28.5186 27.9763C28.8034 27.606 29.4918 27.3733 30.166 27.7484C30.541 27.962 31.2151 28.375 31.6329 28.6836C32.0792 29.0112 32.9954 29.7755 32.9954 29.7755C33.4322 30.1411 33.5319 30.6823 33.2375 31.252C33.2375 31.2567 33.2328 31.2615 33.2328 31.2615C32.9289 31.7979 32.5207 32.3059 32.0032 32.7759C31.9984 32.7806 31.9984 32.7806 31.9937 32.7854C31.5712 33.1367 31.1534 33.3408 30.7451 33.3883C30.6977 33.3978 30.6359 33.4025 30.5647 33.3978C30.3843 33.3978 30.2087 33.374 30.033 33.3171L30.0188 33.2981C29.3874 33.1224 28.3382 32.6762 26.5864 31.7125C25.447 31.0858 24.5023 30.4449 23.7047 29.8088C23.2822 29.4764 22.8502 29.0967 22.4087 28.6599C22.3945 28.6456 22.3802 28.6314 22.366 28.6172C22.3517 28.6029 22.3375 28.5887 22.3233 28.5744C22.309 28.5602 22.2948 28.546 22.2805 28.5317C22.2663 28.5175 22.252 28.5032 22.2378 28.489C21.801 28.0475 21.4213 27.6155 21.0889 27.1929C20.4528 26.3954 19.8119 25.4459 19.1852 24.3113C18.2215 22.5595 17.7753 21.5103 17.5996 20.8789L17.5806 20.8647C17.5236 20.689 17.4952 20.5134 17.4999 20.333C17.4952 20.2618 17.4999 20.2 17.5094 20.1526C17.5569 19.7443 17.761 19.3265 18.1123 18.904C18.1171 18.8993 18.1171 18.8993 18.1218 18.8945C18.5918 18.377 19.095 17.9688 19.6362 17.6649C19.641 17.6649 19.6457 17.6602 19.6457 17.6602C20.2154 17.3658 20.7566 17.4655 21.1222 17.9023C21.1269 17.907 21.8865 18.8185 22.2141 19.2648C22.5226 19.6873 22.9404 20.3567 23.1493 20.7317C23.5243 21.4059 23.2917 22.0942 22.9214 22.3791L22.1808 22.9678C21.8058 23.2716 21.8533 23.8318 21.8533 23.8318C21.8533 23.8318 22.9547 27.9953 27.0659 29.0444Z" fill="white"/>
</svg>
