<svg width="71" height="71" viewBox="0 0 71 71" fill="none" xmlns="http://www.w3.org/2000/svg">
<path d="M35.5332 70.2588C54.8632 70.2588 70.5332 54.5888 70.5332 35.2588C70.5332 15.9288 54.8632 0.258789 35.5332 0.258789C16.2032 0.258789 0.533203 15.9288 0.533203 35.2588C0.533203 54.5888 16.2032 70.2588 35.5332 70.2588Z" fill="#665CAC"/>
<path d="M41.0669 43.2326C41.4072 43.1276 40.6754 43.1134 41.0669 43.2326V43.2326Z" fill="white"/>
<path d="M35.5563 22.8774C35.552 22.8774 35.5478 22.8771 35.5434 22.8771C35.5392 22.8768 35.5446 22.8771 35.5563 22.8774Z" fill="white"/>
<path d="M35.5439 22.876C35.5479 22.876 35.5517 22.8764 35.5557 22.8764C35.816 22.8856 40.0499 23.0013 35.5439 22.876Z" fill="white"/>
<path d="M42.6703 32.1224C42.6519 31.7999 42.6626 32.1809 42.6703 32.1224V32.1224Z" fill="white"/>
<path d="M39.7524 32.0039C39.7585 32.0034 39.7644 31.9998 39.7703 31.999C39.7538 31.999 39.7283 31.9995 39.7021 32.0006C39.7191 32.0011 39.7346 32.004 39.7524 32.0039Z" fill="white"/>
<path d="M39.7543 32.0081C39.7366 32.0084 39.721 32.0055 39.7041 32.0049C39.6191 32.0075 39.5314 32.0126 39.7543 32.0081Z" fill="white"/>
<path d="M39.7718 32.002C39.7657 32.0027 39.7598 32.0063 39.7539 32.0068C39.7999 32.0032 39.7959 32.002 39.7718 32.002Z" fill="white"/>
<path d="M52.7926 19.5081C51.6893 18.4979 47.2429 15.2678 37.3399 15.2212C37.3399 15.2212 25.6556 14.5167 19.9597 19.7408C16.7894 22.9111 15.6728 27.5502 15.5598 33.306C15.4402 39.0617 15.2873 49.8354 25.6822 52.7598H25.6888L25.6822 57.2195C25.6822 57.2195 25.6157 59.0273 26.8054 59.3929C28.241 59.8382 29.0851 58.469 30.4609 56.9869C31.212 56.176 32.2554 54.9797 33.0397 54.0691C40.1446 54.6673 45.6146 53.2982 46.2327 53.0988C47.6683 52.6335 55.7901 51.5901 57.1061 40.8163C58.4686 29.7103 56.4481 22.6784 52.7926 19.5081ZM53.9956 40.0188C52.879 49.0179 46.2925 49.5895 45.0829 49.975C44.5645 50.1412 39.7658 51.3375 33.7309 50.9387C33.7309 50.9387 29.2313 56.3621 27.829 57.7778C27.6096 57.9971 27.3504 58.0902 27.1776 58.0437C26.9384 57.9838 26.8719 57.6981 26.8719 57.2793C26.8785 56.6812 26.9118 49.8687 26.9118 49.8687C26.9051 49.8687 26.9051 49.8687 26.9118 49.8687C18.1253 47.4294 18.6371 38.2508 18.7368 33.4455C18.8365 28.6402 19.7404 24.7056 22.4188 22.0603C27.2374 17.7003 37.1604 18.3517 37.1604 18.3517C45.5415 18.3916 49.5559 20.9105 50.4864 21.7546C53.5769 24.4065 55.1521 30.7405 53.9956 40.0188Z" fill="white"/>
<path fill-rule="evenodd" clip-rule="evenodd" d="M37.2609 29.55C37.2845 29.1057 37.6638 28.7647 38.1081 28.7883C39.3061 28.8519 40.3356 29.2157 41.0767 29.9811C41.8145 30.7431 42.1608 31.7939 42.2199 33.0166C42.2413 33.461 41.8985 33.8387 41.4541 33.8602C41.0097 33.8817 40.632 33.5388 40.6105 33.0944C40.5632 32.1172 40.298 31.4931 39.9192 31.1019C39.5438 30.7142 38.9515 30.4466 38.0227 30.3972C37.5784 30.3736 37.2373 29.9943 37.2609 29.55Z" fill="white"/>
<path fill-rule="evenodd" clip-rule="evenodd" d="M36.4103 26.5298C36.4418 26.086 36.8271 25.7518 37.2709 25.7833C39.6778 25.9542 41.6349 26.7841 43.0646 28.3418C44.4827 29.8867 45.1484 31.8033 45.0976 34.0358C45.0875 34.4806 44.7187 34.8331 44.2739 34.8229C43.8291 34.8128 43.4767 34.444 43.4868 33.9992C43.5291 32.1376 42.9851 30.6379 41.8776 29.4313C40.7817 28.2374 39.2429 27.5386 37.1568 27.3905C36.713 27.359 36.3787 26.9737 36.4103 26.5298Z" fill="white"/>
<path fill-rule="evenodd" clip-rule="evenodd" d="M35.4248 23.6774C35.4277 23.2325 35.7907 22.8741 36.2356 22.877C39.5466 22.8981 42.3627 24.0073 44.6155 26.2028L44.6164 26.2037C46.8946 28.4313 48.0146 31.4453 48.0424 35.1681C48.0457 35.613 47.6877 35.9764 47.2428 35.9797C46.7979 35.983 46.4345 35.6251 46.4312 35.1801C46.4058 31.7916 45.3991 29.2228 43.4904 27.3563C41.5561 25.4713 39.1483 24.5069 36.2253 24.4882C35.7804 24.4853 35.422 24.1223 35.4248 23.6774Z" fill="white"/>
<path d="M38.1782 40.5589C38.1782 40.5589 38.9691 40.6253 39.3878 40.1003L40.212 39.0634C40.6108 38.545 41.5745 38.2194 42.5183 38.7444C43.0433 39.0435 43.9871 39.6217 44.572 40.0538C45.1967 40.5124 46.4795 41.5824 46.4795 41.5824C47.091 42.0942 47.2305 42.8519 46.8185 43.6494C46.8185 43.6561 46.8118 43.6627 46.8118 43.6627C46.3864 44.4138 45.8149 45.1249 45.0904 45.7829C45.0838 45.7896 45.0838 45.7896 45.0771 45.7962C44.4856 46.288 43.9007 46.5738 43.3291 46.6403C43.2627 46.6536 43.1763 46.6602 43.0766 46.6536C42.824 46.6536 42.5781 46.6203 42.3322 46.5406L42.3122 46.514C41.4283 46.2681 39.9594 45.6433 37.5069 44.2941C35.9118 43.4168 34.5892 42.5196 33.4726 41.6289C32.8811 41.1637 32.2762 40.632 31.6581 40.0205C31.6382 40.0006 31.6183 39.9806 31.5983 39.9607C31.5784 39.9408 31.5584 39.9208 31.5385 39.9009C31.5186 39.881 31.4986 39.861 31.4787 39.8411C31.4587 39.8211 31.4388 39.8012 31.4189 39.7813C30.8074 39.1631 30.2757 38.5583 29.8104 37.9668C28.9198 36.8502 28.0226 35.5209 27.1453 33.9325C25.7961 31.48 25.1713 30.0111 24.9254 29.1272L24.8988 29.1072C24.819 28.8613 24.7792 28.6154 24.7858 28.3628C24.7792 28.2631 24.7858 28.1767 24.7991 28.1103C24.8656 27.5387 25.1514 26.9538 25.6432 26.3623C25.6498 26.3556 25.6498 26.3556 25.6565 26.349C26.3145 25.6245 27.019 25.0529 27.7767 24.6276C27.7833 24.6276 27.79 24.6209 27.79 24.6209C28.5875 24.2089 29.3452 24.3484 29.857 24.9599C29.8636 24.9665 30.927 26.2426 31.3856 26.8674C31.8176 27.4589 32.4025 28.3961 32.695 28.9211C33.22 29.8649 32.8944 30.8286 32.3759 31.2274L31.3391 32.0516C30.814 32.4769 30.8805 33.2612 30.8805 33.2612C30.8805 33.2612 32.4225 39.09 38.1782 40.5589Z" fill="white"/>
</svg>
