<svg width="38" height="39" viewBox="0 0 38 39" fill="none" xmlns="http://www.w3.org/2000/svg">
<circle cx="19" cy="19.0029" r="19" fill="url(#paint0_linear)"/>
<path d="M25.8845 21.0928C25.3626 21.0928 24.9411 20.6713 24.9411 20.1495C24.9411 19.6276 25.3626 19.2061 25.8845 19.2061C26.4063 19.2061 26.8278 19.6276 26.8278 20.1495C26.8278 20.6713 26.4063 21.0928 25.8845 21.0928ZM21.2079 21.0928C20.686 21.0928 20.2645 20.6713 20.2645 20.1495C20.2645 19.6276 20.686 19.2061 21.2079 19.2061C21.7297 19.2061 22.1512 19.6276 22.1512 20.1495C22.1512 20.6713 21.7297 21.0928 21.2079 21.0928ZM28.1526 26.4519C29.6378 25.368 30.5812 23.7824 30.5812 22.0161C30.5812 18.7846 27.43 16.1553 23.5562 16.1553C19.6824 16.1553 16.5312 18.7846 16.5312 22.0161C16.5312 25.2476 19.6824 27.8769 23.5562 27.8769C24.3591 27.8769 25.1419 27.7565 25.8444 27.5558C25.9046 27.5357 25.9849 27.5156 26.0451 27.5156C26.1856 27.5156 26.306 27.5558 26.4264 27.616L27.9719 28.4991C28.0121 28.5192 28.0522 28.5393 28.1124 28.5393C28.2328 28.5393 28.3533 28.4389 28.3533 28.2984C28.3533 28.2382 28.3332 28.178 28.3131 28.1178C28.3131 28.0776 28.1124 27.3751 27.992 26.9336C27.9719 26.8934 27.9719 26.8332 27.9719 26.7931C27.9518 26.6727 28.0321 26.5522 28.1526 26.4519Z" fill="white"/>
<path d="M18.4782 15.6144C17.856 15.6144 17.3542 15.1126 17.3542 14.4904C17.3542 13.8682 17.856 13.3664 18.4782 13.3664C19.1004 13.3664 19.6022 13.8682 19.6022 14.4904C19.6022 15.1126 19.1004 15.6144 18.4782 15.6144ZM12.8583 15.6144C12.236 15.6144 11.7343 15.1126 11.7343 14.4904C11.7343 13.8682 12.236 13.3664 12.8583 13.3664C13.4805 13.3664 13.9822 13.8682 13.9822 14.4904C13.9822 15.1126 13.4805 15.6144 12.8583 15.6144ZM15.6682 9.69336C11.0117 9.69336 7.23828 12.8446 7.23828 16.7183C7.23828 18.8459 8.38235 20.7527 10.1486 22.0372C10.2891 22.1376 10.3895 22.2982 10.3895 22.4989C10.3895 22.5591 10.3694 22.6193 10.3694 22.6795C10.2289 23.2014 10.0081 24.0644 9.98805 24.1046C9.96798 24.1648 9.94791 24.2451 9.94791 24.3053C9.94791 24.4659 10.0683 24.5863 10.2289 24.5863C10.2891 24.5863 10.3493 24.5662 10.3895 24.5261L12.236 23.4623C12.3765 23.382 12.517 23.3419 12.6776 23.3419C12.7579 23.3419 12.8382 23.3619 12.9185 23.382C13.7815 23.6229 14.7048 23.7634 15.6682 23.7634C15.8288 23.7634 15.9693 23.7634 16.1299 23.7433C15.9492 23.2014 15.8489 22.6193 15.8489 22.0172C15.8489 18.4846 19.3012 15.5943 23.5362 15.5943C23.6968 15.5943 23.8373 15.5943 23.9978 15.6144C23.3756 12.2625 19.8832 9.69336 15.6682 9.69336Z" fill="white"/>
<defs>
<linearGradient id="paint0_linear" x1="19.0162" y1="37.9371" x2="19.0162" y2="0.0396633" gradientUnits="userSpaceOnUse">
<stop stop-color="#00B70C"/>
<stop offset="0.00164835" stop-color="#00B70C"/>
<stop offset="0.9517" stop-color="#00D50C"/>
<stop offset="1" stop-color="#00D50C"/>
</linearGradient>
</defs>
</svg>
