<svg width="38" height="38" viewBox="0 0 38 38" fill="none" xmlns="http://www.w3.org/2000/svg">
<g filter="url(#filter0_d)">
<circle cx="19" cy="17" r="15" fill="url(#paint0_linear)"/>
<path d="M24.4349 18.65C24.0229 18.65 23.6902 18.3173 23.6902 17.9053C23.6902 17.4933 24.0229 17.1605 24.4349 17.1605C24.8469 17.1605 25.1797 17.4933 25.1797 17.9053C25.1797 18.3173 24.8469 18.65 24.4349 18.65ZM20.7429 18.65C20.3309 18.65 19.9981 18.3173 19.9981 17.9053C19.9981 17.4933 20.3309 17.1605 20.7429 17.1605C21.1548 17.1605 21.4876 17.4933 21.4876 17.9053C21.4876 18.3173 21.1548 18.65 20.7429 18.65ZM26.2255 22.8808C27.3981 22.0252 28.1428 20.7734 28.1428 19.3789C28.1428 16.8278 25.655 14.752 22.5968 14.752C19.5386 14.752 17.0508 16.8278 17.0508 19.3789C17.0508 21.9301 19.5386 24.0059 22.5968 24.0059C23.2306 24.0059 23.8486 23.9108 24.4032 23.7524C24.4508 23.7365 24.5142 23.7207 24.5617 23.7207C24.6726 23.7207 24.7677 23.7524 24.8628 23.7999L26.0829 24.4971C26.1146 24.513 26.1463 24.5288 26.1938 24.5288C26.2889 24.5288 26.384 24.4496 26.384 24.3387C26.384 24.2911 26.3681 24.2436 26.3523 24.196C26.3523 24.1644 26.1938 23.6098 26.0987 23.2611C26.0829 23.2295 26.0829 23.1819 26.0829 23.1502C26.067 23.0551 26.1304 22.9601 26.2255 22.8808Z" fill="white"/>
<path d="M18.5885 14.3249C18.0973 14.3249 17.7011 13.9288 17.7011 13.4375C17.7011 12.9463 18.0973 12.5502 18.5885 12.5502C19.0797 12.5502 19.4759 12.9463 19.4759 13.4375C19.4759 13.9288 19.0797 14.3249 18.5885 14.3249ZM14.1517 14.3249C13.6604 14.3249 13.2643 13.9288 13.2643 13.4375C13.2643 12.9463 13.6604 12.5502 14.1517 12.5502C14.6429 12.5502 15.039 12.9463 15.039 13.4375C15.039 13.9288 14.6429 14.3249 14.1517 14.3249ZM16.3701 9.65039C12.6939 9.65039 9.71484 12.1382 9.71484 15.1964C9.71484 16.8761 10.6181 18.3814 12.0125 19.3955C12.1234 19.4748 12.2026 19.6015 12.2026 19.76C12.2026 19.8075 12.1868 19.8551 12.1868 19.9026C12.0759 20.3146 11.9016 20.996 11.8857 21.0277C11.8699 21.0752 11.854 21.1386 11.854 21.1861C11.854 21.3129 11.9491 21.408 12.0759 21.408C12.1234 21.408 12.1709 21.3921 12.2026 21.3604L13.6604 20.5206C13.7714 20.4572 13.8823 20.4255 14.0091 20.4255C14.0724 20.4255 14.1358 20.4414 14.1992 20.4572C14.8806 20.6474 15.6095 20.7583 16.3701 20.7583C16.4968 20.7583 16.6078 20.7583 16.7345 20.7424C16.5919 20.3146 16.5127 19.8551 16.5127 19.3797C16.5127 16.5908 19.2382 14.3091 22.5816 14.3091C22.7084 14.3091 22.8193 14.3091 22.9461 14.3249C22.4549 11.6787 19.6977 9.65039 16.3701 9.65039Z" fill="white"/>
</g>
<defs>
<filter id="filter0_d" x="0" y="0" width="38" height="38" filterUnits="userSpaceOnUse" color-interpolation-filters="sRGB">
<feFlood flood-opacity="0" result="BackgroundImageFix"/>
<feColorMatrix in="SourceAlpha" type="matrix" values="0 0 0 0 0 0 0 0 0 0 0 0 0 0 0 0 0 0 127 0"/>
<feOffset dy="2"/>
<feGaussianBlur stdDeviation="2"/>
<feColorMatrix type="matrix" values="0 0 0 0 0 0 0 0 0 0 0 0 0 0 0 0 0 0 0.25 0"/>
<feBlend mode="normal" in2="BackgroundImageFix" result="effect1_dropShadow"/>
<feBlend mode="normal" in="SourceGraphic" in2="effect1_dropShadow" result="shape"/>
</filter>
<linearGradient id="paint0_linear" x1="19.0128" y1="31.948" x2="19.0128" y2="2.029" gradientUnits="userSpaceOnUse">
<stop stop-color="#00B70C"/>
<stop offset="0.00164835" stop-color="#00B70C"/>
<stop offset="0.9517" stop-color="#00D50C"/>
<stop offset="1" stop-color="#00D50C"/>
</linearGradient>
</defs>
</svg>
