<svg width="51" height="51" viewBox="0 0 51 51" fill="none" xmlns="http://www.w3.org/2000/svg">
<circle cx="25.1768" cy="25.0029" r="25" fill="url(#paint0_linear)"/>
<path d="M34.2366 27.7526C33.5499 27.7526 32.9953 27.198 32.9953 26.5114C32.9953 25.8247 33.5499 25.2701 34.2366 25.2701C34.9232 25.2701 35.4778 25.8247 35.4778 26.5114C35.4778 27.198 34.9232 27.7526 34.2366 27.7526ZM28.0831 27.7526C27.3965 27.7526 26.8419 27.198 26.8419 26.5114C26.8419 25.8247 27.3965 25.2701 28.0831 25.2701C28.7698 25.2701 29.3244 25.8247 29.3244 26.5114C29.3244 27.198 28.7698 27.7526 28.0831 27.7526ZM37.2209 34.804C39.1752 33.3779 40.4164 31.2915 40.4164 28.9675C40.4164 24.7155 36.2701 21.2559 31.1731 21.2559C26.076 21.2559 21.9297 24.7155 21.9297 28.9675C21.9297 33.2194 26.076 36.6791 31.1731 36.6791C32.2294 36.6791 33.2594 36.5206 34.1838 36.2565C34.263 36.2301 34.3686 36.2037 34.4479 36.2037C34.6327 36.2037 34.7912 36.2565 34.9496 36.3358L36.9832 37.4978C37.036 37.5242 37.0888 37.5506 37.1681 37.5506C37.3265 37.5506 37.485 37.4186 37.485 37.2337C37.485 37.1545 37.4586 37.0752 37.4322 36.996C37.4322 36.9432 37.1681 36.0189 37.0096 35.4378C36.9832 35.385 36.9832 35.3058 36.9832 35.253C36.9568 35.0945 37.0624 34.9361 37.2209 34.804Z" fill="white"/>
<path d="M24.4916 20.5448C23.6729 20.5448 23.0126 19.8845 23.0126 19.0658C23.0126 18.2471 23.6729 17.5869 24.4916 17.5869C25.3102 17.5869 25.9705 18.2471 25.9705 19.0658C25.9705 19.8845 25.3102 20.5448 24.4916 20.5448ZM17.0968 20.5448C16.2782 20.5448 15.6179 19.8845 15.6179 19.0658C15.6179 18.2471 16.2782 17.5869 17.0968 17.5869C17.9155 17.5869 18.5758 18.2471 18.5758 19.0658C18.5758 19.8845 17.9155 20.5448 17.0968 20.5448ZM20.7942 12.7539C14.6672 12.7539 9.70215 16.9002 9.70215 21.9973C9.70215 24.7967 11.2075 27.3056 13.5315 28.9958C13.7164 29.1279 13.8485 29.3392 13.8485 29.6033C13.8485 29.6825 13.8221 29.7617 13.8221 29.8409C13.6372 30.5276 13.3467 31.6632 13.3203 31.716C13.2939 31.7953 13.2675 31.9009 13.2675 31.9801C13.2675 32.1914 13.4259 32.3499 13.6372 32.3499C13.7164 32.3499 13.7956 32.3235 13.8485 32.2706L16.2781 30.8709C16.463 30.7653 16.6479 30.7125 16.8592 30.7125C16.9648 30.7125 17.0704 30.7389 17.1761 30.7653C18.3117 31.0822 19.5265 31.2671 20.7942 31.2671C21.0055 31.2671 21.1903 31.2671 21.4016 31.2407C21.1639 30.5276 21.0319 29.7617 21.0319 28.9694C21.0319 24.3213 25.5743 20.5183 31.1468 20.5183C31.3581 20.5183 31.5429 20.5183 31.7542 20.5448C30.9355 16.1343 26.3402 12.7539 20.7942 12.7539Z" fill="white"/>
<defs>
<linearGradient id="paint0_linear" x1="25.198" y1="49.9163" x2="25.198" y2="0.0512634" gradientUnits="userSpaceOnUse">
<stop stop-color="#00B70C"/>
<stop offset="0.00164835" stop-color="#00B70C"/>
<stop offset="0.9517" stop-color="#00D50C"/>
<stop offset="1" stop-color="#00D50C"/>
</linearGradient>
</defs>
</svg>
