<svg width="71" height="71" viewBox="0 0 71 71" fill="none" xmlns="http://www.w3.org/2000/svg">
<circle cx="35.5332" cy="35.0029" r="35" fill="url(#paint0_linear)"/>
<path d="M48.217 38.8523C47.2556 38.8523 46.4792 38.0759 46.4792 37.1146C46.4792 36.1533 47.2556 35.3768 48.217 35.3768C49.1783 35.3768 49.9547 36.1533 49.9547 37.1146C49.9547 38.0759 49.1783 38.8523 48.217 38.8523ZM39.6021 38.8523C38.6408 38.8523 37.8644 38.0759 37.8644 37.1146C37.8644 36.1533 38.6408 35.3768 39.6021 35.3768C40.5634 35.3768 41.3399 36.1533 41.3399 37.1146C41.3399 38.0759 40.5634 38.8523 39.6021 38.8523ZM52.395 48.7243C55.131 46.7277 56.8688 43.8068 56.8688 40.5531C56.8688 34.6004 51.0639 29.7568 43.928 29.7568C36.7921 29.7568 30.9873 34.6004 30.9873 40.5531C30.9873 46.5058 36.7921 51.3494 43.928 51.3494C45.407 51.3494 46.8489 51.1275 48.143 50.7578C48.2539 50.7208 48.4018 50.6838 48.5128 50.6838C48.7716 50.6838 48.9934 50.7578 49.2152 50.8687L52.0622 52.4955C52.1361 52.5325 52.2101 52.5695 52.321 52.5695C52.5429 52.5695 52.7647 52.3846 52.7647 52.1258C52.7647 52.0149 52.7277 51.904 52.6908 51.793C52.6908 51.7191 52.321 50.425 52.0992 49.6116C52.0622 49.5377 52.0622 49.4267 52.0622 49.3528C52.0252 49.131 52.1731 48.9091 52.395 48.7243Z" fill="white"/>
<path d="M34.5743 28.7607C33.4281 28.7607 32.5038 27.8364 32.5038 26.6902C32.5038 25.544 33.4281 24.6197 34.5743 24.6197C35.7205 24.6197 36.6448 25.544 36.6448 26.6902C36.6448 27.8364 35.7205 28.7607 34.5743 28.7607ZM24.2217 28.7607C23.0755 28.7607 22.1512 27.8364 22.1512 26.6902C22.1512 25.544 23.0755 24.6197 24.2217 24.6197C25.3679 24.6197 26.2922 25.544 26.2922 26.6902C26.2922 27.8364 25.3679 28.7607 24.2217 28.7607ZM29.398 17.8535C20.8202 17.8535 13.8691 23.6584 13.8691 30.7942C13.8691 34.7134 15.9766 38.2259 19.2303 40.5922C19.4891 40.7771 19.674 41.0729 19.674 41.4426C19.674 41.5535 19.637 41.6644 19.637 41.7754C19.3782 42.7367 18.9715 44.3265 18.9345 44.4005C18.8975 44.5114 18.8606 44.6593 18.8606 44.7702C18.8606 45.066 19.0824 45.2878 19.3782 45.2878C19.4891 45.2878 19.6 45.2509 19.674 45.1769L23.0755 43.2173C23.3344 43.0694 23.5932 42.9955 23.889 42.9955C24.0369 42.9955 24.1847 43.0325 24.3326 43.0694C25.9225 43.5131 27.6233 43.7719 29.398 43.7719C29.6938 43.7719 29.9526 43.7719 30.2484 43.735C29.9156 42.7367 29.7308 41.6644 29.7308 40.5552C29.7308 34.0479 36.0902 28.7237 43.8916 28.7237C44.1874 28.7237 44.4462 28.7237 44.742 28.7607C43.5958 22.5861 37.1624 17.8535 29.398 17.8535Z" fill="white"/>
<defs>
<linearGradient id="paint0_linear" x1="35.563" y1="69.8817" x2="35.563" y2="0.0705969" gradientUnits="userSpaceOnUse">
<stop stop-color="#00B70C"/>
<stop offset="0.00164835" stop-color="#00B70C"/>
<stop offset="0.9517" stop-color="#00D50C"/>
<stop offset="1" stop-color="#00D50C"/>
</linearGradient>
</defs>
</svg>
