<svg width="59" height="59" viewBox="0 0 59 59" fill="none" xmlns="http://www.w3.org/2000/svg">
<circle cx="29.1768" cy="29.0029" r="29" fill="url(#paint0_linear)"/>
<path d="M39.6862 32.1925C38.8896 32.1925 38.2463 31.5492 38.2463 30.7527C38.2463 29.9561 38.8896 29.3128 39.6862 29.3128C40.4827 29.3128 41.126 29.9561 41.126 30.7527C41.126 31.5492 40.4827 32.1925 39.6862 32.1925ZM32.5482 32.1925C31.7516 32.1925 31.1083 31.5492 31.1083 30.7527C31.1083 29.9561 31.7516 29.3128 32.5482 29.3128C33.3447 29.3128 33.988 29.9561 33.988 30.7527C33.988 31.5492 33.3447 32.1925 32.5482 32.1925ZM43.1479 40.3721C45.4149 38.7178 46.8548 36.2976 46.8548 33.6017C46.8548 28.6695 42.0451 24.6562 36.1325 24.6562C30.2199 24.6562 25.4102 28.6695 25.4102 33.6017C25.4102 38.534 30.2199 42.5472 36.1325 42.5472C37.3579 42.5472 38.5527 42.3634 39.6249 42.057C39.7168 42.0264 39.8393 41.9958 39.9312 41.9958C40.1457 41.9958 40.3295 42.057 40.5133 42.1489L42.8722 43.4969C42.9335 43.5275 42.9948 43.5582 43.0867 43.5582C43.2705 43.5582 43.4543 43.405 43.4543 43.1905C43.4543 43.0986 43.4237 43.0067 43.393 42.9148C43.393 42.8536 43.0867 41.7813 42.9029 41.1073C42.8722 41.0461 42.8722 40.9542 42.8722 40.8929C42.8416 40.7091 42.9641 40.5253 43.1479 40.3721Z" fill="white"/>
<path d="M28.3823 23.8313C27.4326 23.8313 26.6667 23.0654 26.6667 22.1158C26.6667 21.1661 27.4326 20.4002 28.3823 20.4002C29.332 20.4002 30.0978 21.1661 30.0978 22.1158C30.0978 23.0654 29.332 23.8313 28.3823 23.8313ZM19.8044 23.8313C18.8547 23.8313 18.0888 23.0654 18.0888 22.1158C18.0888 21.1661 18.8547 20.4002 19.8044 20.4002C20.7541 20.4002 21.52 21.1661 21.52 22.1158C21.52 23.0654 20.7541 23.8313 19.8044 23.8313ZM24.0933 14.7939C16.986 14.7939 11.2266 19.6037 11.2266 25.5163C11.2266 28.7636 12.9728 31.6739 15.6687 33.6346C15.8831 33.7878 16.0363 34.0328 16.0363 34.3392C16.0363 34.4311 16.0057 34.523 16.0057 34.6149C15.7912 35.4114 15.4542 36.7287 15.4236 36.79C15.3929 36.8819 15.3623 37.0045 15.3623 37.0964C15.3623 37.3414 15.5461 37.5252 15.7912 37.5252C15.8831 37.5252 15.975 37.4946 16.0363 37.4333L18.8547 35.8097C19.0692 35.6871 19.2836 35.6259 19.5287 35.6259C19.6512 35.6259 19.7738 35.6565 19.8963 35.6871C21.2136 36.0548 22.6229 36.2692 24.0933 36.2692C24.3384 36.2692 24.5529 36.2692 24.7979 36.2386C24.5222 35.4114 24.3691 34.523 24.3691 33.6039C24.3691 28.2122 29.6383 23.8007 36.1023 23.8007C36.3474 23.8007 36.5619 23.8007 36.8069 23.8313C35.8573 18.7152 30.5267 14.7939 24.0933 14.7939Z" fill="white"/>
<defs>
<linearGradient id="paint0_linear" x1="29.2014" y1="57.9025" x2="29.2014" y2="0.0589968" gradientUnits="userSpaceOnUse">
<stop stop-color="#00B70C"/>
<stop offset="0.00164835" stop-color="#00B70C"/>
<stop offset="0.9517" stop-color="#00D50C"/>
<stop offset="1" stop-color="#00D50C"/>
</linearGradient>
</defs>
</svg>
